<svg width="1055" height="559" xmlns="http://www.w3.org/2000/svg" viewBox="0 150 1055 459">
 <style type="text/css">.st0{fill-rule:evenodd;clip-rule:evenodd;fill:#00813D;}
	.st1{fill-rule:evenodd;clip-rule:evenodd;fill:#DE3C3B;}
	.st2{fill-rule:evenodd;clip-rule:evenodd;}
	.st3{fill-rule:evenodd;clip-rule:evenodd;fill:#E7E5E4;}
	.st4{fill-rule:evenodd;clip-rule:evenodd;fill:#FFFFFF;}
	.st5{fill-rule:evenodd;clip-rule:evenodd;fill:#9CB64F;}
	.st6{fill-rule:evenodd;clip-rule:evenodd;fill:#2595BD;}</style>

 <g>
  <title>background</title>
  <rect fill="none" id="canvas_background" height="561" width="1057" y="-1" x="-1"/>
 </g>
 <g>
  <title>Layer 1</title>
  <g stroke="null" id="svg_1">
   <rect x="1" y="1" stroke="null" id="svg_2" height="559" width="1055" class="st0"/>
   <g stroke="null" id="svg_3">
    <g stroke="null" id="svg_4">
     <g stroke="null" id="svg_5">
      <polygon stroke="null" id="svg_6" points="405.0999755859375,477.9000244140625 350.4000244140625,511.4000244140625 405.0999755859375,545 459.70001220703125,511.4000244140625 " class="st1"/>
      <polygon stroke="null" id="svg_7" points="566.2999877929688,477.9000244140625 511.70001220703125,511.4000244140625 566.2999877929688,545 621,511.4000244140625 " class="st2"/>
      <g stroke="null" id="svg_8">
       <path stroke="null" id="svg_29" d="m241.5,499.4l-7.3,0l-3.4,12.3c-0.2,0.7 -0.4,1.6 -0.6,2.7c-0.2,1.2 -0.4,2.1 -0.5,2.9c-0.1,-1.1 -0.4,-3 -1.1,-5.7l-3.3,-12.3l-7.3,0l7.9,24.2l7.7,0l7.9,-24.1z" class="st3"/>
       <polygon stroke="null" id="svg_30" points="216.29998779296875,504.60003662109375 216.29998779296875,499.4000244140625 202,499.4000244140625 202,523.5 216.29998779296875,523.5 216.29998779296875,518.2000122070312 208.5,518.2000122070312 208.5,513.7000122070312 215.70001220703125,513.7000122070312 215.70001220703125,508.4000244140625 208.5,508.4000244140625 208.5,504.60003662109375 " class="st3"/>
       <path stroke="null" id="svg_31" d="m271.2,499.4l-8.5,0l0,24.2l5.8,0l0,-10.9c0,-1.4 -0.1,-3.5 -0.3,-6.1l0.1,0l8.8,17l8.6,0l0,-24.2l-5.8,0l0,10.9c0,1.5 0.1,3.4 0.2,5.9l-0.1,0l-8.8,-16.8z" class="st3"/>
       <polygon stroke="null" id="svg_32" points="258.3999938964844,504.60003662109375 258.3999938964844,499.4000244140625 244.10000610351562,499.4000244140625 244.10000610351562,523.5 258.3999938964844,523.5 258.3999938964844,518.2000122070312 250.60000610351562,518.2000122070312 250.60000610351562,513.7000122070312 257.79998779296875,513.7000122070312 257.79998779296875,508.4000244140625 250.60000610351562,508.4000244140625 250.60000610351562,504.60003662109375 " class="st3"/>
       <path stroke="null" id="svg_33" d="m711.5,520.7c2,-2.1 3,-5.2 3,-9.3c0,-4.1 -1,-7.2 -3,-9.3c-2,-2.1 -4.9,-3.2 -8.8,-3.2c-3.8,0 -6.8,1.1 -8.8,3.2c-2,2.1 -3,5.2 -3,9.2c0,4.1 1,7.2 3,9.3c2,2.1 4.9,3.2 8.7,3.2c3.9,0.1 6.9,-1 8.9,-3.1zm-13.7,-9.3c0,-4.7 1.6,-7.1 4.9,-7.1c1.6,0 2.8,0.6 3.6,1.7c0.8,1.2 1.2,2.9 1.2,5.4c0,2.4 -0.4,4.2 -1.2,5.3c-0.8,1.1 -2,1.7 -3.7,1.7c-3.2,0 -4.8,-2.3 -4.8,-7z" class="st3"/>
       <path stroke="null" id="svg_34" d="m739.3,511c0,-3.7 -1.1,-6.6 -3.2,-8.6c-2.1,-2 -5.1,-3 -9,-3l-8.4,0l0,24.2l7.8,0c4,0 7.1,-1.1 9.4,-3.3c2.3,-2.2 3.4,-5.3 3.4,-9.3zm-8.1,5.5c-0.9,1.2 -2.4,1.7 -4.4,1.7l-1.5,0l0,-13.6l1.9,0c1.8,0 3.1,0.5 4,1.6c0.9,1.1 1.3,2.7 1.3,4.9c0.1,2.5 -0.4,4.2 -1.3,5.4z" class="st3"/>
       <path stroke="null" id="svg_35" d="m764.2,511c0,-3.7 -1.1,-6.6 -3.2,-8.6c-2.1,-2 -5.1,-3 -9,-3l-8.4,0l0,24.2l7.8,0c4,0 7.1,-1.1 9.4,-3.3c2.3,-2.2 3.4,-5.3 3.4,-9.3zm-8.2,5.5c-0.9,1.2 -2.4,1.7 -4.4,1.7l-1.5,0l0,-13.6l1.9,0c1.8,0 3.1,0.5 4,1.6c0.9,1.1 1.3,2.7 1.3,4.9c0.1,2.5 -0.3,4.2 -1.3,5.4z" class="st3"/>
       <text stroke="null" font-weight="bold" xml:space="preserve" text-anchor="start" font-family="Oswald, sans-serif" font-size="32" id="svg_251" y="161.199997" x="984" stroke-opacity="0" stroke-width="0" fill="#ffffff">3rd</text>
       <text stroke="null" font-weight="bold" xml:space="preserve" text-anchor="start" font-family="Oswald, sans-serif" font-size="32" id="svg_252" y="252.199997" x="979" stroke-opacity="0" stroke-width="0" fill="#ffffff">2nd</text>
       <text stroke="null" font-weight="bold" xml:space="preserve" text-anchor="start" font-family="Oswald, sans-serif" font-size="32" id="svg_253" y="344.199997" x="983" stroke-opacity="0" stroke-width="0" fill="#ffffff">1st</text>
       <text font-weight="bold" xml:space="preserve" text-anchor="start" font-family="Helvetica, Arial, sans-serif" font-size="35" id="svg_10" y="434.953125" x="117" stroke-opacity="0" stroke-width="0" stroke="null" fill="#ffffff">1 - 12</text>
       <text font-weight="bold" xml:space="preserve" text-anchor="start" font-family="Helvetica, Arial, sans-serif" font-size="35" id="svg_11" y="433.953125" x="432" stroke-opacity="0" stroke-width="0" stroke="null" fill="#ffffff">13 - 24</text>
       <text font-weight="bold" xml:space="preserve" text-anchor="start" font-family="Helvetica, Arial, sans-serif" font-size="35" id="svg_12" y="433.953125" x="754" stroke-opacity="0" stroke-width="0" stroke="null" fill="#ffffff">25 - 36</text>
       <text font-weight="bold" xml:space="preserve" text-anchor="start" font-family="Helvetica, Arial, sans-serif" font-size="35" id="svg_13" y="524.953125" x="35" stroke-opacity="0" stroke-width="0" stroke="null" fill="#ffffff">1 - 18</text>
       <text font-weight="bold" xml:space="preserve" text-anchor="start" font-family="Helvetica, Arial, sans-serif" font-size="35" id="svg_14" y="525.953125" x="833" stroke-opacity="0" stroke-width="0" stroke="null" fill="#ffffff">19 - 36</text>
      </g>
      <g stroke="null" id="svg_54">
       <g stroke="null" id="svg_55">
        <circle stroke="null" id="svg_56" r="34.599998" cy="332.199997" cx="42.3" class="st1"/>
        <circle stroke="null" id="svg_57" r="34.599998" cy="239.999997" cx="42.3" class="st2"/>
        <circle stroke="null" id="svg_58" r="34.599998" cy="147.899997" cx="42.3" class="st1"/>
       </g>
       <g stroke="null" id="svg_59">
        <circle stroke="null" id="svg_60" r="34.599998" cy="332.199997" cx="122.9" class="st2"/>
        <circle stroke="null" id="svg_61" r="34.599998" cy="239.999997" cx="122.9" class="st1"/>
        <circle stroke="null" id="svg_62" r="34.599998" cy="147.899997" cx="122.9" class="st2"/>
       </g>
       <g stroke="null" id="svg_63">
        <circle stroke="null" id="svg_64" r="34.599998" cy="332.199997" cx="203.5" class="st1"/>
        <circle stroke="null" id="svg_65" r="34.599998" cy="239.999997" cx="203.5" class="st2"/>
        <circle stroke="null" id="svg_66" r="34.599998" cy="147.899997" cx="203.5" class="st1"/>
       </g>
       <g stroke="null" id="svg_67">
        <circle stroke="null" id="svg_68" r="34.599998" cy="332.199997" cx="284.1" class="st2"/>
        <circle stroke="null" id="svg_69" r="34.599998" cy="239.999997" cx="284.1" class="st2"/>
        <circle stroke="null" id="svg_70" r="34.599998" cy="147.899997" cx="284.1" class="st1"/>
       </g>
       <g stroke="null" id="svg_71">
        <circle stroke="null" id="svg_72" r="34.599998" cy="332.199997" cx="364.8" class="st2"/>
        <circle stroke="null" id="svg_73" r="34.599998" cy="239.999997" cx="364.8" class="st1"/>
        <circle stroke="null" id="svg_74" r="34.599998" cy="147.899997" cx="364.8" class="st2"/>
       </g>
       <g stroke="null" id="svg_75">
        <circle stroke="null" id="svg_76" r="34.599998" cy="332.199997" cx="445.4" class="st1"/>
        <circle stroke="null" id="svg_77" r="34.599998" cy="239.999997" cx="445.4" class="st2"/>
        <circle stroke="null" id="svg_78" r="34.599998" cy="147.899997" cx="445.4" class="st1"/>
       </g>
       <g stroke="null" id="svg_79">
        <circle stroke="null" id="svg_80" r="34.599998" cy="332.199997" cx="526" class="st1"/>
        <circle stroke="null" id="svg_81" r="34.599998" cy="239.999997" cx="526" class="st2"/>
        <circle stroke="null" id="svg_82" r="34.599998" cy="147.899997" cx="526" class="st1"/>
       </g>
       <g stroke="null" id="svg_83">
        <circle stroke="null" id="svg_84" r="34.599998" cy="332.199997" cx="606.6" class="st2"/>
        <circle stroke="null" id="svg_85" r="34.599998" cy="239.999997" cx="606.6" class="st1"/>
        <circle stroke="null" id="svg_86" r="34.599998" cy="147.899997" cx="606.6" class="st2"/>
       </g>
       <g stroke="null" id="svg_87">
        <circle stroke="null" id="svg_88" r="34.599998" cy="332.199997" cx="687.3" class="st1"/>
        <circle stroke="null" id="svg_89" r="34.599998" cy="239.999997" cx="687.3" class="st2"/>
        <circle stroke="null" id="svg_90" r="34.599998" cy="147.899997" cx="687.3" class="st1"/>
       </g>
       <g stroke="null" id="svg_91">
        <circle stroke="null" id="svg_92" r="34.599998" cy="332.199997" cx="767.9" class="st2"/>
        <circle stroke="null" id="svg_93" r="34.599998" cy="239.999997" cx="767.9" class="st2"/>
        <circle stroke="null" id="svg_94" r="34.599998" cy="147.899997" cx="767.9" class="st1"/>
       </g>
       <g stroke="null" id="svg_95">
        <circle stroke="null" id="svg_96" r="34.599998" cy="332.199997" cx="848.5" class="st2"/>
        <circle stroke="null" id="svg_97" r="34.599998" cy="239.999997" cx="848.5" class="st1"/>
        <circle stroke="null" id="svg_98" r="34.599998" cy="147.899997" cx="848.5" class="st2"/>
       </g>
       <g stroke="null" id="svg_99">
        <circle stroke="null" id="svg_100" r="34.599998" cy="332.199997" cx="929.1" class="st1"/>
        <circle stroke="null" id="svg_101" r="34.599998" cy="239.999997" cx="929.1" class="st2"/>
        <circle stroke="null" id="svg_102" r="34.599998" cy="147.899997" cx="929.1" class="st1"/>
       </g>
      </g>
     </g>
     <g stroke="null" id="svg_103">
      <path stroke="null" id="svg_105" d="m38.5,346.1l7.7,0l0,-28l-6.8,0l-9.6,7.8l3.9,4.8l3.2,-2.6c0.7,-0.6 1.3,-1.2 1.8,-1.8c-0.1,1.5 -0.1,3.1 -0.1,4.9l0,14.9l-0.1,0z" class="st4"/>
      <path stroke="null" id="svg_106" d="m48.1,242.1c1,-1 1.7,-1.9 2.3,-2.8c0.6,-0.9 1,-1.8 1.3,-2.8c0.3,-0.9 0.4,-1.9 0.4,-3c0,-1.5 -0.4,-2.8 -1.2,-4c-0.8,-1.2 -1.9,-2.1 -3.3,-2.7c-1.4,-0.6 -3,-1 -4.8,-1c-1.4,0 -2.7,0.1 -3.9,0.4c-1.1,0.3 -2.2,0.7 -3.2,1.3c-1,0.6 -2.2,1.5 -3.6,2.8l4.2,4.9c1.1,-1 2.2,-1.7 3.1,-2.2c0.9,-0.5 1.8,-0.8 2.7,-0.8c0.9,0 1.5,0.2 2,0.6c0.5,0.4 0.7,1 0.7,1.7c0,0.6 -0.1,1.1 -0.4,1.7c-0.2,0.5 -0.7,1.2 -1.3,1.9c-0.6,0.7 -1.9,2.1 -3.8,4.2l-6.8,6.9l0,5l20.3,0l0,-6.2l-10.8,0l0,-0.2c3.1,-2.8 5.1,-4.7 6.1,-5.7z" class="st4"/>
      <path stroke="null" id="svg_107" d="m43.1,155.7c-0.8,0.5 -2,0.7 -3.6,0.7c-1.1,0 -2.2,-0.2 -3.5,-0.5c-1.3,-0.3 -2.5,-0.8 -3.7,-1.4l0,6.3c1.5,0.6 2.9,1 4.2,1.2c1.3,0.2 2.7,0.3 4.2,0.3c3.7,0 6.5,-0.7 8.6,-2.2c2.1,-1.5 3.1,-3.5 3.1,-6.1c0,-3.8 -2.3,-6 -7,-6.6l0,-0.2c2,-0.6 3.5,-1.5 4.6,-2.7c1.1,-1.2 1.6,-2.7 1.6,-4.5c0,-2 -0.8,-3.6 -2.5,-4.7c-1.6,-1.2 -3.9,-1.7 -6.8,-1.7c-2,0 -3.8,0.2 -5.3,0.6c-1.5,0.4 -3.1,1.2 -4.5,2.2l3.1,5c1.9,-1.2 3.8,-1.8 5.5,-1.8c1,0 1.7,0.2 2.3,0.5c0.6,0.4 0.9,0.9 0.9,1.6c0,2 -1.9,3 -5.8,3l-1.8,0l0,5.7l1.7,0c1.4,0 2.6,0.1 3.4,0.3c0.9,0.2 1.5,0.5 1.9,0.9c0.4,0.4 0.6,1 0.6,1.8c0,1.1 -0.4,1.8 -1.2,2.3z" class="st4"/>
      <path stroke="null" id="svg_108" d="m123.7,318.2l-11.7,17l0,5.5l11.2,0l0,5.4l7.5,0l0,-5.4l3.1,0l0,-5.6l-3.1,0l0,-16.9l-7,0zm-0.4,11.1c0,1 -0.1,1.9 -0.1,2.5l0,3.3l-4.6,0l3.1,-4.6c0.5,-0.9 1,-1.8 1.5,-2.8l0.2,0c-0.1,0.1 -0.1,0.6 -0.1,1.6z" class="st4"/>
      <path stroke="null" id="svg_109" d="m120.6,248.3c-1,0 -2.2,-0.2 -3.6,-0.5c-1.4,-0.3 -2.7,-0.8 -3.8,-1.3l0,6.2c2.1,1 4.7,1.5 8,1.5c3.8,0 6.7,-0.8 8.5,-2.5c1.9,-1.7 2.8,-4.1 2.8,-7.2c0,-1.8 -0.4,-3.4 -1.1,-4.7c-0.7,-1.4 -1.7,-2.4 -3,-3.2c-1.3,-0.8 -2.7,-1.1 -4.4,-1.1c-0.4,0 -0.7,0 -1.2,0c-0.4,0 -1.1,0.1 -2.1,0.3l0.3,-3.7l9.5,0l0,-6.3l-16,0l-1.1,14.8l2.8,1.4c1.4,-0.4 2.7,-0.7 3.8,-0.7c1.6,0 2.7,0.3 3.5,0.9c0.8,0.6 1.2,1.4 1.2,2.5c0,1.2 -0.4,2 -1.1,2.6c-0.6,0.7 -1.6,1 -3,1z" class="st4"/>
      <path stroke="null" id="svg_110" d="m127.2,139.4c1.5,0 2.9,0.1 4.2,0.4l0,-5.9c-1.5,-0.2 -2.9,-0.3 -4,-0.3c-3.2,0 -5.9,0.6 -8,1.7c-2.2,1.1 -3.8,2.9 -4.9,5.4c-1.1,2.4 -1.7,5.6 -1.7,9.5c0,3.8 0.9,6.9 2.8,9c1.9,2.1 4.4,3.2 7.8,3.2c3.1,0 5.5,-0.9 7.3,-2.7c1.7,-1.8 2.6,-4.2 2.6,-7.3c0,-2.9 -0.7,-5.1 -2.1,-6.7c-1.4,-1.6 -3.3,-2.4 -5.8,-2.4c-2.5,0 -4.4,1.1 -5.5,3.3l-0.2,0c0.1,-2.5 0.8,-4.3 2,-5.4c1.1,-1.2 2.9,-1.8 5.5,-1.8zm-6.2,10.6c0.5,-0.6 1.2,-0.9 2.1,-0.9c1.8,0 2.6,1.1 2.6,3.4c0,1.3 -0.3,2.3 -0.8,2.9c-0.5,0.6 -1.2,0.9 -2,0.9c-0.9,0 -1.5,-0.4 -2.1,-1.2c-0.5,-0.8 -0.8,-1.8 -0.8,-3c0.2,-0.8 0.5,-1.5 1,-2.1z" class="st4"/>
      <polygon stroke="null" id="svg_111" points="203.70001220703125,346.1000061035156 213.60000610351562,322.5999755859375 213.60000610351562,318.20001220703125 193.39999389648438,318.20001220703125 193.39999389648438,324.4000244140625 205.5,324.4000244140625 195.89999389648438,346.1000061035156 " class="st4"/>
      <path stroke="null" id="svg_112" d="m194.5,242.5c-0.8,1.1 -1.2,2.5 -1.2,4.1c0,2.5 0.9,4.4 2.6,5.8c1.7,1.3 4.3,2 7.6,2c3.2,0 5.7,-0.7 7.5,-2.1c1.8,-1.4 2.7,-3.3 2.7,-5.8c0,-1.4 -0.4,-2.6 -1.3,-3.8c-0.9,-1.2 -2.3,-2.3 -4.4,-3.5c1.7,-0.8 2.9,-1.8 3.7,-2.9c0.8,-1.1 1.2,-2.4 1.2,-3.9c0,-2.2 -0.8,-3.9 -2.5,-5.1c-1.6,-1.2 -3.9,-1.8 -6.9,-1.8c-2.9,0 -5.3,0.6 -6.9,1.8c-1.7,1.2 -2.5,2.9 -2.5,5c0,1.4 0.3,2.6 1,3.8c0.7,1.1 1.8,2.2 3.2,3.2c-1.8,1.1 -3.1,2.1 -3.8,3.2zm7.4,-10.8c0.4,-0.4 1,-0.6 1.6,-0.6c0.6,0 1.2,0.2 1.6,0.6c0.4,0.4 0.7,0.9 0.7,1.5c0,0.5 -0.2,1 -0.5,1.5c-0.3,0.4 -0.9,0.9 -1.9,1.4c-1.5,-0.8 -2.2,-1.8 -2.2,-2.9c0,-0.7 0.2,-1.1 0.7,-1.5zm-0.9,12.7c0.5,-0.6 1.3,-1.2 2.4,-1.8c1.3,0.8 2.1,1.4 2.6,2c0.5,0.6 0.7,1.2 0.7,1.8c0,1.6 -1.1,2.5 -3.4,2.5c-1,0 -1.8,-0.2 -2.3,-0.7c-0.6,-0.5 -0.8,-1.1 -0.8,-1.9c0,-0.6 0.3,-1.2 0.8,-1.9z" class="st4"/>
      <path stroke="null" id="svg_113" d="m204.6,154.7c-1.5,1.1 -3.6,1.7 -6.3,1.7c-1.1,0 -2.2,-0.1 -3.3,-0.3l0,6c0.9,0.1 2.2,0.2 3.9,0.2c5.2,0 9,-1.2 11.3,-3.7c2.4,-2.4 3.5,-6.4 3.5,-11.9c0,-4.2 -0.9,-7.4 -2.8,-9.7c-1.9,-2.3 -4.5,-3.4 -7.9,-3.4c-3.1,0 -5.5,0.9 -7.3,2.6c-1.8,1.8 -2.7,4.2 -2.7,7.3c0,2.8 0.7,5.1 2.1,6.7c1.4,1.6 3.3,2.4 5.7,2.4c1,0 1.9,-0.1 2.6,-0.3c0.7,-0.2 1.3,-0.5 1.8,-0.9c0.5,-0.4 1,-1.1 1.5,-2l0.2,0c0,2.4 -0.8,4.2 -2.3,5.3zm0.8,-8.7c-0.6,0.6 -1.3,0.9 -2.2,0.9c-0.9,0 -1.6,-0.3 -2.1,-0.9c-0.4,-0.6 -0.7,-1.5 -0.7,-2.5c0,-1.3 0.3,-2.3 0.8,-2.9c0.5,-0.6 1.2,-0.9 2,-0.9c0.9,0 1.6,0.4 2.2,1.2c0.6,0.8 0.8,1.8 0.8,2.9c0.1,0.8 -0.2,1.6 -0.8,2.2z" class="st4"/>
      <path stroke="null" id="svg_114" d="m271.4,346.1l7.7,0l0,-28l-6.8,0l-9.6,7.8l3.9,4.8l3.2,-2.6c0.7,-0.6 1.3,-1.2 1.8,-1.8c-0.1,1.5 -0.1,3.1 -0.1,4.9l0,14.9l-0.1,0z" class="st4"/>
      <path stroke="null" id="svg_115" d="m295.5,346.5c3.4,0 6,-1.2 7.6,-3.5c1.7,-2.3 2.5,-5.9 2.5,-10.9c0,-4.8 -0.9,-8.4 -2.6,-10.8c-1.7,-2.4 -4.2,-3.6 -7.6,-3.6c-3.4,0 -6,1.2 -7.6,3.5c-1.7,2.3 -2.5,6 -2.5,11c0,4.8 0.9,8.3 2.5,10.7c1.8,2.4 4.4,3.6 7.7,3.6zm-2,-20.9c0.4,-1.2 1.1,-1.8 2,-1.8c0.9,0 1.6,0.6 2,1.9c0.4,1.2 0.6,3.4 0.6,6.5c0,3.1 -0.2,5.2 -0.6,6.5c-0.4,1.2 -1.1,1.8 -2,1.8c-0.9,0 -1.6,-0.6 -2,-1.8c-0.4,-1.2 -0.6,-3.4 -0.6,-6.5c0,-3.2 0.2,-5.4 0.6,-6.6z" class="st4"/>
      <path stroke="null" id="svg_116" d="m273.2,254l7.7,0l0,-28l-6.9,0l-9.6,7.8l3.9,4.8l3.2,-2.6c0.7,-0.6 1.3,-1.2 1.8,-1.8c-0.1,1.5 -0.1,3.1 -0.1,4.9l0,14.9z" class="st4"/>
      <path stroke="null" id="svg_117" d="m296.2,254l7.7,0l0,-28l-6.9,0l-9.6,7.8l3.9,4.8l3.2,-2.6c0.7,-0.6 1.3,-1.2 1.8,-1.8c-0.1,1.5 -0.1,3.1 -0.1,4.9l0,14.9z" class="st4"/>
      <path stroke="null" id="svg_118" d="m301,150c1,-1 1.7,-1.9 2.3,-2.8c0.6,-0.9 1,-1.8 1.3,-2.8c0.3,-0.9 0.4,-1.9 0.4,-3c0,-1.5 -0.4,-2.8 -1.2,-4c-0.8,-1.2 -1.9,-2.1 -3.3,-2.7c-1.4,-0.6 -3,-1 -4.8,-1c-1.4,0 -2.7,0.1 -3.9,0.4c-1.1,0.3 -2.2,0.7 -3.2,1.3c-1,0.6 -2.2,1.5 -3.6,2.8l4.2,4.9c1.1,-1 2.1,-1.7 3,-2.2c0.9,-0.5 1.8,-0.8 2.7,-0.8c0.9,0 1.5,0.2 2,0.6c0.5,0.4 0.7,1 0.7,1.7c0,0.6 -0.1,1.1 -0.4,1.7c-0.2,0.5 -0.7,1.2 -1.3,1.9c-0.6,0.7 -1.9,2.1 -3.8,4.2l-6.8,6.9l0,5l20.3,0l0,-6.2l-10.6,0l0,-0.2c3.1,-2.8 5.1,-4.7 6,-5.7z" class="st4"/>
      <path stroke="null" id="svg_119" d="m271.5,162.1l7.7,0l0,-28l-6.8,0l-9.6,7.8l3.9,4.8l3.2,-2.6c0.7,-0.6 1.3,-1.2 1.8,-1.8c-0.1,1.5 -0.1,3.1 -0.1,4.9l0,14.9l-0.1,0z" class="st4"/>
      <path stroke="null" id="svg_120" d="m352.1,346.1l7.7,0l0,-28l-6.8,0l-9.6,7.8l3.9,4.8l3.2,-2.6c0.7,-0.6 1.3,-1.2 1.8,-1.8c-0.1,1.5 -0.1,3.1 -0.1,4.9l0,14.9l-0.1,0z" class="st4"/>
      <path stroke="null" id="svg_121" d="m377,339.9c-0.8,0.5 -2,0.7 -3.6,0.7c-1.1,0 -2.2,-0.2 -3.5,-0.5c-1.3,-0.3 -2.5,-0.8 -3.7,-1.4l0,6.3c1.5,0.6 2.9,1 4.2,1.2c1.3,0.2 2.7,0.3 4.2,0.3c3.7,0 6.5,-0.7 8.6,-2.2c2.1,-1.5 3.1,-3.5 3.1,-6.1c0,-3.8 -2.3,-6 -7,-6.6l0,-0.1c2,-0.6 3.5,-1.5 4.6,-2.7c1.1,-1.2 1.6,-2.7 1.6,-4.5c0,-2 -0.8,-3.6 -2.5,-4.7c-1.6,-1.2 -3.9,-1.7 -6.8,-1.7c-2,0 -3.8,0.2 -5.3,0.6c-1.5,0.4 -3.1,1.2 -4.5,2.2l3.1,5c1.9,-1.2 3.8,-1.8 5.5,-1.8c1,0 1.7,0.2 2.3,0.5c0.6,0.4 0.9,0.9 0.9,1.6c0,2 -1.9,3 -5.8,3l-1.8,0l0,5.7l1.7,0c1.4,0 2.6,0.1 3.4,0.3c0.9,0.2 1.5,0.5 1.9,0.9c0.4,0.4 0.6,1 0.6,1.8c-0.1,1 -0.5,1.7 -1.2,2.2z" class="st4"/>
      <path stroke="null" id="svg_122" d="m351.6,254l7.7,0l0,-28l-6.8,0l-9.6,7.8l3.9,4.8l3.2,-2.6c0.7,-0.6 1.3,-1.2 1.8,-1.8c-0.1,1.5 -0.1,3.1 -0.1,4.9l0,14.9l-0.1,0z" class="st4"/>
      <path stroke="null" id="svg_123" d="m376.6,226.1l-11.6,17l0,5.5l11.2,0l0,5.4l7.5,0l0,-5.4l3.1,0l0,-5.6l-3.1,0l0,-16.9l-7.1,0zm-0.5,11.1c0,1 -0.1,1.9 -0.1,2.5l0,3.3l-4.6,0l3.1,-4.6c0.5,-0.9 1,-1.8 1.5,-2.8l0.2,0c0,0.1 0,0.6 -0.1,1.6z" class="st4"/>
      <path stroke="null" id="svg_124" d="m352.2,161.7l7.7,0l0,-28l-6.8,0l-9.6,7.8l3.9,4.8l3.2,-2.6c0.7,-0.6 1.3,-1.2 1.8,-1.8c-0.1,1.5 -0.1,3.1 -0.1,4.9l0,14.9l-0.1,0z" class="st4"/>
      <path stroke="null" id="svg_125" d="m374,156.2c-1,0 -2.2,-0.2 -3.6,-0.5c-1.4,-0.3 -2.7,-0.8 -3.8,-1.3l0,6.2c2.1,1 4.7,1.5 8,1.5c3.8,0 6.7,-0.8 8.5,-2.5c1.9,-1.7 2.8,-4.1 2.8,-7.2c0,-1.8 -0.4,-3.4 -1.1,-4.7c-0.7,-1.4 -1.7,-2.4 -3,-3.2c-1.3,-0.8 -2.7,-1.1 -4.4,-1.1c-0.4,0 -0.7,0 -1.2,0c-0.4,0 -1.1,0.1 -2.1,0.3l0.3,-3.7l9.5,0l0,-6.3l-16,0l-1.1,14.8l2.8,1.4c1.4,-0.4 2.7,-0.7 3.8,-0.7c1.6,0 2.7,0.3 3.5,0.9c0.8,0.6 1.1,1.4 1.1,2.5c0,1.2 -0.4,2 -1.1,2.6c-0.4,0.7 -1.5,1 -2.9,1z" class="st4"/>
      <path stroke="null" id="svg_126" d="m432.6,346.1l7.7,0l0,-28l-6.8,0l-9.6,7.8l3.9,4.8l3.2,-2.6c0.7,-0.6 1.3,-1.2 1.8,-1.8c-0.1,1.5 -0.1,3.1 -0.1,4.9l0,14.9l-0.1,0z" class="st4"/>
      <path stroke="null" id="svg_127" d="m461,323.6c1.5,0 2.9,0.1 4.2,0.4l0,-5.9c-1.5,-0.2 -2.9,-0.3 -4,-0.3c-3.2,0 -5.9,0.6 -8,1.7c-2.2,1.1 -3.8,2.9 -4.9,5.4c-1.1,2.4 -1.7,5.6 -1.7,9.5c0,3.8 0.9,6.9 2.8,9c1.9,2.1 4.4,3.2 7.8,3.2c3.1,0 5.5,-0.9 7.3,-2.7c1.7,-1.8 2.6,-4.2 2.6,-7.3c0,-2.9 -0.7,-5.1 -2.1,-6.7c-1.4,-1.6 -3.3,-2.4 -5.8,-2.4c-2.5,0 -4.4,1.1 -5.5,3.3l-0.2,0c0.1,-2.5 0.8,-4.3 2,-5.4c1.1,-1.2 3,-1.8 5.5,-1.8zm-6.1,10.6c0.5,-0.6 1.2,-0.9 2.1,-0.9c1.8,0 2.6,1.1 2.6,3.4c0,1.3 -0.3,2.3 -0.8,2.9c-0.5,0.6 -1.2,0.9 -2,0.9c-0.9,0 -1.5,-0.4 -2.1,-1.2c-0.5,-0.8 -0.8,-1.8 -0.8,-3c0.1,-0.8 0.4,-1.5 1,-2.1z" class="st4"/>
      <path stroke="null" id="svg_128" d="m432.6,254l7.7,0l0,-28l-6.8,0l-9.6,7.8l3.9,4.8l3.2,-2.6c0.7,-0.6 1.3,-1.2 1.8,-1.8c-0.1,1.5 -0.1,3.1 -0.1,4.9l0,14.9l-0.1,0z" class="st4"/>
      <polygon stroke="null" id="svg_129" points="457.0999755859375,254 466.9000244140625,230.5999755859375 466.9000244140625,226.10000610351562 446.70001220703125,226.10000610351562 446.70001220703125,232.4000244140625 458.79998779296875,232.4000244140625 449.20001220703125,254 " class="st4"/>
      <path stroke="null" id="svg_130" d="m432.6,161.9l7.7,0l0,-28l-6.8,0l-9.6,7.8l3.9,4.8l3.2,-2.6c0.7,-0.6 1.3,-1.2 1.8,-1.8c-0.1,1.5 -0.1,3.1 -0.1,4.9l0,14.9l-0.1,0z" class="st4"/>
      <path stroke="null" id="svg_131" d="m447.7,150.4c-0.8,1.1 -1.2,2.5 -1.2,4.1c0,2.5 0.9,4.4 2.6,5.8c1.7,1.3 4.3,2 7.6,2c3.2,0 5.7,-0.7 7.5,-2.1c1.8,-1.4 2.7,-3.3 2.7,-5.8c0,-1.4 -0.4,-2.6 -1.3,-3.8c-0.9,-1.2 -2.3,-2.3 -4.4,-3.5c1.7,-0.8 2.9,-1.8 3.7,-2.9c0.8,-1.1 1.2,-2.4 1.2,-3.9c0,-2.2 -0.8,-3.9 -2.5,-5.1c-1.6,-1.2 -3.9,-1.8 -6.9,-1.8c-2.9,0 -5.3,0.6 -6.9,1.8c-1.7,1.2 -2.5,2.9 -2.5,5c0,1.4 0.3,2.6 1,3.8c0.7,1.1 1.8,2.2 3.2,3.2c-1.7,1.1 -3.1,2.1 -3.8,3.2zm7.4,-10.8c0.4,-0.4 1,-0.6 1.6,-0.6c0.6,0 1.2,0.2 1.6,0.6c0.4,0.4 0.7,0.9 0.7,1.5c0,0.5 -0.2,1 -0.5,1.5c-0.3,0.4 -0.9,0.9 -1.9,1.4c-1.5,-0.8 -2.2,-1.8 -2.2,-2.9c0,-0.7 0.2,-1.2 0.7,-1.5zm-0.9,12.7c0.5,-0.6 1.3,-1.2 2.4,-1.8c1.3,0.8 2.1,1.4 2.6,2c0.5,0.6 0.7,1.2 0.7,1.8c0,1.6 -1.1,2.5 -3.4,2.5c-1,0 -1.8,-0.2 -2.3,-0.7c-0.6,-0.5 -0.8,-1.1 -0.8,-1.9c0,-0.6 0.3,-1.2 0.8,-1.9z" class="st4"/>
      <path stroke="null" id="svg_132" d="m513.2,346.1l7.7,0l0,-28l-6.8,0l-9.6,7.8l3.9,4.8l3.2,-2.6c0.7,-0.6 1.3,-1.2 1.8,-1.8c-0.1,1.5 -0.1,3.1 -0.1,4.9l0,14.9l-0.1,0z" class="st4"/>
      <path stroke="null" id="svg_133" d="m538.3,338.9c-1.5,1.1 -3.6,1.7 -6.3,1.7c-1.1,0 -2.2,-0.1 -3.3,-0.3l0,6c0.9,0.1 2.2,0.2 3.9,0.2c5.2,0 9,-1.2 11.3,-3.7c2.4,-2.4 3.5,-6.4 3.5,-11.9c0,-4.2 -0.9,-7.4 -2.8,-9.7c-1.9,-2.3 -4.5,-3.4 -7.9,-3.4c-3.1,0 -5.5,0.9 -7.3,2.6c-1.8,1.8 -2.7,4.2 -2.7,7.3c0,2.8 0.7,5.1 2.1,6.7c1.4,1.6 3.3,2.4 5.7,2.4c1,0 1.9,-0.1 2.6,-0.3c0.7,-0.2 1.3,-0.5 1.8,-0.9c0.5,-0.4 1,-1.1 1.5,-2l0.2,0c0,2.4 -0.8,4.2 -2.3,5.3zm0.8,-8.7c-0.6,0.6 -1.3,0.9 -2.2,0.9c-0.9,0 -1.6,-0.3 -2.1,-0.9c-0.4,-0.6 -0.7,-1.5 -0.7,-2.5c0,-1.3 0.3,-2.3 0.8,-2.9c0.5,-0.6 1.2,-0.9 2,-0.9c0.9,0 1.6,0.4 2.2,1.2c0.6,0.8 0.9,1.8 0.9,2.9c0,0.9 -0.3,1.6 -0.9,2.2z" class="st4"/>
      <path stroke="null" id="svg_134" d="m537.8,254.4c3.4,0 6,-1.2 7.6,-3.5c1.7,-2.3 2.5,-5.9 2.5,-10.9c0,-4.8 -0.9,-8.4 -2.6,-10.8c-1.7,-2.4 -4.2,-3.6 -7.6,-3.6c-3.4,0 -6,1.2 -7.6,3.5c-1.7,2.3 -2.5,6 -2.5,11c0,4.8 0.8,8.3 2.6,10.7c1.7,2.4 4.2,3.6 7.6,3.6zm-2,-20.9c0.4,-1.2 1.1,-1.8 2,-1.8c0.9,0 1.6,0.6 2,1.9c0.4,1.2 0.6,3.4 0.6,6.5c0,3.1 -0.2,5.2 -0.6,6.5c-0.4,1.2 -1,1.8 -2,1.8c-0.9,0 -1.6,-0.6 -2,-1.8c-0.4,-1.2 -0.6,-3.4 -0.6,-6.5c0,-3.2 0.2,-5.4 0.6,-6.6z" class="st4"/>
      <path stroke="null" id="svg_135" d="m520.3,241.9c1,-1 1.7,-1.9 2.3,-2.8c0.6,-0.9 1,-1.8 1.3,-2.8c0.3,-0.9 0.4,-1.9 0.4,-3c0,-1.5 -0.4,-2.8 -1.2,-4c-0.8,-1.2 -1.9,-2.1 -3.3,-2.7c-1.4,-0.6 -3,-1 -4.8,-1c-1.4,0 -2.7,0.1 -3.9,0.4c-1.2,0.3 -2.2,0.7 -3.2,1.3c-1,0.6 -2.2,1.5 -3.6,2.8l4.2,4.9c1.1,-1 2.1,-1.7 3.1,-2.2c0.9,-0.5 1.8,-0.8 2.7,-0.8c0.9,0 1.5,0.2 2,0.6c0.5,0.4 0.7,1 0.7,1.7c0,0.6 -0.1,1.2 -0.4,1.7c-0.2,0.5 -0.7,1.2 -1.3,1.9c-0.6,0.7 -1.9,2.1 -3.8,4.2l-6.8,6.9l0,5l20.3,0l0,-6.2l-10.6,0l0,-0.2c2.9,-2.8 4.9,-4.7 5.9,-5.7z" class="st4"/>
      <path stroke="null" id="svg_136" d="m522,150c1,-1 1.7,-1.9 2.3,-2.8c0.6,-0.9 1,-1.8 1.3,-2.8c0.3,-0.9 0.4,-1.9 0.4,-3c0,-1.5 -0.4,-2.8 -1.2,-4c-0.8,-1.2 -1.9,-2.1 -3.3,-2.7c-1.4,-0.6 -3,-1 -4.9,-1c-1.4,0 -2.7,0.1 -3.9,0.4c-1.1,0.3 -2.2,0.7 -3.2,1.3c-1,0.6 -2.2,1.5 -3.6,2.8l4.2,4.9c1.1,-1 2.2,-1.7 3.1,-2.2c0.9,-0.5 1.8,-0.8 2.7,-0.8c0.9,0 1.5,0.2 2,0.6c0.5,0.4 0.7,1 0.7,1.7c0,0.6 -0.1,1.1 -0.4,1.7c-0.2,0.5 -0.7,1.2 -1.3,1.9c-0.6,0.7 -1.9,2.1 -3.8,4.2l-6.8,6.9l0,5l20.3,0l0,-6.2l-10.6,0l0,-0.2c3.1,-2.8 5.1,-4.7 6,-5.7z" class="st4"/>
      <path stroke="null" id="svg_137" d="m538.4,162.1l7.7,0l0,-28l-6.8,0l-9.6,7.8l3.9,4.8l3.2,-2.6c0.7,-0.6 1.3,-1.2 1.8,-1.8c-0.1,1.5 -0.1,3.1 -0.1,4.9l0,14.9l-0.1,0z" class="st4"/>
      <path stroke="null" id="svg_138" d="m600.9,334.2c1,-1 1.7,-1.9 2.3,-2.8c0.6,-0.9 1,-1.8 1.3,-2.8c0.3,-0.9 0.4,-1.9 0.4,-3c0,-1.5 -0.4,-2.8 -1.2,-4c-0.8,-1.2 -1.9,-2.1 -3.3,-2.7c-1.4,-0.6 -3,-1 -4.9,-1c-1.4,0 -2.7,0.1 -3.9,0.4c-1.2,0.3 -2.2,0.7 -3.2,1.3c-1,0.6 -2.2,1.5 -3.6,2.8l4.2,4.9c1.1,-1 2.1,-1.7 3.1,-2.2c0.9,-0.5 1.8,-0.8 2.7,-0.8c0.9,0 1.5,0.2 2,0.6c0.5,0.4 0.7,1 0.7,1.7c0,0.6 -0.1,1.1 -0.4,1.7c-0.2,0.5 -0.7,1.2 -1.3,1.9c-0.6,0.7 -1.9,2.1 -3.8,4.2l-6.8,6.9l0,5l20.3,0l0,-6.2l-10.6,0l0,-0.2c3.1,-2.8 5.1,-4.7 6,-5.7z" class="st4"/>
      <path stroke="null" id="svg_139" d="m623.9,334.2c1,-1 1.7,-1.9 2.3,-2.8c0.6,-0.9 1,-1.8 1.3,-2.8c0.3,-0.9 0.4,-1.9 0.4,-3c0,-1.5 -0.4,-2.8 -1.2,-4c-0.8,-1.2 -1.9,-2.1 -3.3,-2.7c-1.4,-0.6 -3,-1 -4.9,-1c-1.4,0 -2.7,0.1 -3.9,0.4c-1.2,0.3 -2.2,0.7 -3.2,1.3c-1,0.6 -2.2,1.5 -3.6,2.8l4.2,4.9c1.1,-1 2.1,-1.7 3.1,-2.2c0.9,-0.5 1.8,-0.8 2.7,-0.8c0.9,0 1.5,0.2 2,0.6c0.5,0.4 0.7,1 0.7,1.7c0,0.6 -0.1,1.1 -0.4,1.7c-0.2,0.5 -0.7,1.2 -1.3,1.9c-0.6,0.7 -1.9,2.1 -3.8,4.2l-6.8,6.9l0,5l20.3,0l0,-6.2l-10.6,0l0,-0.2c3,-2.8 5.1,-4.7 6,-5.7z" class="st4"/>
      <path stroke="null" id="svg_140" d="m601,241.9c1,-1 1.7,-1.9 2.3,-2.8c0.6,-0.9 1,-1.8 1.3,-2.8c0.3,-0.9 0.4,-1.9 0.4,-3c0,-1.5 -0.4,-2.8 -1.2,-4c-0.8,-1.2 -1.9,-2.1 -3.3,-2.7c-1.4,-0.6 -3,-1 -4.8,-1c-1.4,0 -2.7,0.1 -3.9,0.4c-1.1,0.3 -2.2,0.7 -3.2,1.3c-1,0.6 -2.2,1.5 -3.6,2.8l4.2,4.9c1.1,-1 2.2,-1.7 3.1,-2.2c0.9,-0.5 1.8,-0.8 2.7,-0.8c0.9,0 1.5,0.2 2,0.6c0.5,0.4 0.7,1 0.7,1.7c0,0.6 -0.1,1.2 -0.3,1.7c-0.2,0.5 -0.7,1.2 -1.3,1.9c-0.6,0.7 -1.9,2.1 -3.8,4.2l-6.8,6.9l0,5l20.3,0l0,-6.2l-10.6,0l0,-0.2c2.8,-2.8 4.9,-4.7 5.8,-5.7z" class="st4"/>
      <path stroke="null" id="svg_141" d="m619.2,247.8c-0.8,0.5 -2,0.7 -3.6,0.7c-1.1,0 -2.2,-0.2 -3.5,-0.5c-1.3,-0.3 -2.5,-0.8 -3.7,-1.4l0,6.3c1.5,0.6 2.9,1 4.2,1.2c1.3,0.2 2.7,0.3 4.2,0.3c3.7,0 6.5,-0.7 8.6,-2.2c2.1,-1.5 3.1,-3.5 3.1,-6.1c0,-3.8 -2.3,-6 -7,-6.6l0,-0.1c2,-0.6 3.5,-1.5 4.6,-2.7c1.1,-1.2 1.6,-2.7 1.6,-4.5c0,-2 -0.8,-3.6 -2.5,-4.7c-1.6,-1.2 -3.9,-1.7 -6.8,-1.7c-2,0 -3.8,0.2 -5.3,0.6c-1.5,0.4 -3.1,1.2 -4.5,2.2l3.1,5c1.9,-1.2 3.8,-1.8 5.5,-1.8c1,0 1.7,0.2 2.3,0.5c0.6,0.4 0.9,0.9 0.9,1.6c0,2 -1.9,3 -5.8,3l-1.8,0l0,5.7l1.7,0c1.4,0 2.6,0.1 3.4,0.3c0.9,0.2 1.5,0.5 1.9,0.9c0.4,0.4 0.6,1 0.6,1.8c0,1 -0.4,1.7 -1.2,2.2z" class="st4"/>
      <path stroke="null" id="svg_142" d="m600.5,150c1,-1 1.7,-1.9 2.3,-2.8c0.6,-0.9 1,-1.8 1.3,-2.8c0.3,-0.9 0.4,-1.9 0.4,-3c0,-1.5 -0.4,-2.8 -1.2,-4c-0.8,-1.2 -1.9,-2.1 -3.3,-2.7c-1.4,-0.6 -3,-1 -4.8,-1c-1.4,0 -2.7,0.1 -3.9,0.4c-1.2,0.3 -2.2,0.7 -3.2,1.3c-1,0.6 -2.2,1.5 -3.6,2.8l4.2,4.9c1.1,-1 2.1,-1.7 3.1,-2.2c0.9,-0.5 1.8,-0.8 2.7,-0.8c0.9,0 1.5,0.2 2,0.6c0.5,0.4 0.7,1 0.7,1.7c0,0.6 -0.1,1.1 -0.4,1.7c-0.2,0.5 -0.7,1.2 -1.3,1.9c-0.6,0.7 -1.9,2.1 -3.8,4.2l-6.8,6.9l0,5l20.1,0l0,-6.2l-10.6,0l0,-0.2c3.1,-2.8 5.1,-4.7 6.1,-5.7z" class="st4"/>
      <path stroke="null" id="svg_143" d="m618.8,134.1l-11.6,17l0,5.5l11.2,0l0,5.4l7.5,0l0,-5.4l3.1,0l0,-5.6l-3.1,0l0,-16.9l-7.1,0zm-0.4,11.2c0,1 -0.1,1.9 -0.1,2.5l0,3.3l-4.6,0l3.1,-4.6c0.5,-0.9 1,-1.8 1.5,-2.8l0.2,0c0,0.1 -0.1,0.6 -0.1,1.6z" class="st4"/>
      <path stroke="null" id="svg_144" d="m681.7,334.1c1,-1 1.7,-1.9 2.3,-2.8c0.6,-0.9 1,-1.8 1.3,-2.8c0.3,-0.9 0.4,-1.9 0.4,-3c0,-1.5 -0.4,-2.8 -1.2,-4c-0.8,-1.2 -1.9,-2.1 -3.3,-2.7c-1.4,-0.6 -3,-1 -4.8,-1c-1.4,0 -2.7,0.1 -3.9,0.4c-1.2,0.3 -2.2,0.7 -3.2,1.3c-1,0.6 -2.2,1.5 -3.6,2.8l4.2,4.9c1.1,-1 2.1,-1.7 3.1,-2.2c0.9,-0.5 1.8,-0.8 2.7,-0.8c0.9,0 1.5,0.2 2,0.6c0.5,0.4 0.7,1 0.7,1.7c0,0.6 -0.1,1.1 -0.4,1.7c-0.2,0.5 -0.7,1.2 -1.3,1.9c-0.6,0.7 -1.9,2.1 -3.8,4.2l-6.8,6.9l0,5l20.3,0l0,-6.2l-10.6,0l0,-0.2c2.9,-2.9 5,-4.7 5.9,-5.7z" class="st4"/>
      <path stroke="null" id="svg_145" d="m696.9,340.6c-1,0 -2.2,-0.2 -3.6,-0.5c-1.4,-0.3 -2.7,-0.8 -3.8,-1.3l0,6.2c2.1,1 4.7,1.5 8,1.5c3.8,0 6.7,-0.8 8.5,-2.5c1.9,-1.7 2.8,-4.1 2.8,-7.2c0,-1.8 -0.4,-3.4 -1.1,-4.7c-0.7,-1.4 -1.7,-2.4 -3,-3.2c-1.3,-0.8 -2.7,-1.1 -4.4,-1.1c-0.4,0 -0.7,0 -1.2,0c-0.4,0 -1.1,0.1 -2.1,0.3l0.3,-3.7l9.5,0l0,-6.2l-16,0l-1,14.8l2.8,1.4c1.4,-0.4 2.7,-0.7 3.8,-0.7c1.6,0 2.7,0.3 3.5,0.9c0.8,0.6 1.2,1.4 1.2,2.5c0,1.2 -0.4,2 -1.1,2.6c-0.6,0.6 -1.7,0.9 -3.1,0.9z" class="st4"/>
      <path stroke="null" id="svg_146" d="m681.4,241.9c1,-1 1.7,-1.9 2.3,-2.8c0.6,-0.9 1,-1.8 1.3,-2.8c0.3,-0.9 0.4,-1.9 0.4,-3c0,-1.5 -0.4,-2.8 -1.2,-4c-0.8,-1.2 -1.9,-2.1 -3.3,-2.7c-1.4,-0.6 -3,-1 -4.9,-1c-1.4,0 -2.7,0.1 -3.9,0.4c-1.1,0.3 -2.2,0.7 -3.2,1.3c-1,0.6 -2.2,1.5 -3.6,2.8l4.2,4.9c1.1,-1 2.1,-1.7 3,-2.2c0.9,-0.5 1.8,-0.8 2.7,-0.8c0.9,0 1.5,0.2 2,0.6c0.5,0.4 0.7,1 0.7,1.7c0,0.6 -0.1,1.2 -0.4,1.7c-0.2,0.5 -0.7,1.2 -1.3,1.9c-0.6,0.7 -1.9,2.1 -3.8,4.2l-6.8,6.9l0,5l20.3,0l0,-6.2l-10.6,0l0,-0.2c3.2,-2.8 5.2,-4.7 6.1,-5.7z" class="st4"/>
      <path stroke="null" id="svg_147" d="m703.3,231.5c1.5,0 2.9,0.1 4.2,0.4l0,-5.9c-1.5,-0.2 -2.9,-0.3 -4,-0.3c-3.2,0 -5.9,0.6 -8,1.7c-2.2,1.1 -3.8,2.9 -4.9,5.4c-1.1,2.4 -1.7,5.6 -1.7,9.5c0,3.8 0.9,6.9 2.8,9c1.9,2.1 4.4,3.2 7.8,3.2c3.1,0 5.5,-0.9 7.3,-2.7c1.7,-1.8 2.6,-4.2 2.6,-7.3c0,-2.9 -0.7,-5.1 -2.1,-6.7c-1.4,-1.6 -3.3,-2.4 -5.8,-2.4c-2.5,0 -4.4,1.1 -5.5,3.3l-0.2,0c0.1,-2.5 0.8,-4.3 2,-5.4c1,-1.2 2.9,-1.8 5.5,-1.8zm-6.2,10.6c0.5,-0.6 1.2,-0.9 2.1,-0.9c1.8,0 2.6,1.1 2.6,3.4c0,1.3 -0.3,2.3 -0.8,2.9c-0.5,0.6 -1.2,0.9 -2,0.9c-0.9,0 -1.5,-0.4 -2.1,-1.2c-0.5,-0.8 -0.8,-1.8 -0.8,-3c0.2,-0.8 0.5,-1.5 1,-2.1z" class="st4"/>
      <path stroke="null" id="svg_148" d="m681.5,150c1,-1 1.7,-1.9 2.3,-2.8c0.6,-0.9 1,-1.8 1.3,-2.8c0.3,-0.9 0.4,-1.9 0.4,-3c0,-1.5 -0.4,-2.8 -1.2,-4c-0.8,-1.2 -1.9,-2.1 -3.3,-2.7c-1.4,-0.6 -3,-1 -4.8,-1c-1.4,0 -2.7,0.1 -3.9,0.4c-1.1,0.3 -2.2,0.7 -3.2,1.3c-1,0.6 -2.2,1.5 -3.6,2.8l4.2,4.9c1.1,-1 2.2,-1.7 3.1,-2.2c0.9,-0.5 1.8,-0.8 2.7,-0.8c0.9,0 1.5,0.2 2,0.6c0.5,0.4 0.7,1 0.7,1.7c0,0.6 -0.1,1.1 -0.4,1.7c-0.2,0.5 -0.7,1.2 -1.3,1.9c-0.6,0.7 -1.9,2.1 -3.8,4.2l-6.8,6.9l0,5l20.1,0l0,-6.2l-10.6,0l0,-0.2c3.1,-2.8 5.1,-4.7 6.1,-5.7z" class="st4"/>
      <polygon stroke="null" id="svg_149" points="699.2999877929688,162.10000610351562 709.2000122070312,138.70001220703125 709.2000122070312,134.20001220703125 689,134.20001220703125 689,140.49996948242188 701.0999755859375,140.49996948242188 691.5,162.10000610351562 " class="st4"/>
      <path stroke="null" id="svg_150" d="m762.1,334.1c1,-1 1.7,-1.9 2.3,-2.8c0.6,-0.9 1,-1.8 1.3,-2.8c0.3,-0.9 0.4,-1.9 0.4,-3c0,-1.5 -0.4,-2.8 -1.2,-4c-0.8,-1.2 -1.9,-2.1 -3.3,-2.7c-1.4,-0.6 -3,-1 -4.8,-1c-1.4,0 -2.7,0.1 -3.9,0.4c-1.2,0.3 -2.2,0.7 -3.2,1.3c-1,0.6 -2.2,1.5 -3.6,2.8l4.2,4.9c1.1,-1 2.1,-1.7 3.1,-2.2c0.9,-0.5 1.8,-0.8 2.7,-0.8c0.9,0 1.5,0.2 2,0.6c0.5,0.4 0.7,1 0.7,1.7c0,0.6 -0.1,1.1 -0.4,1.7c-0.2,0.5 -0.7,1.2 -1.3,1.9c-0.6,0.7 -1.9,2.1 -3.8,4.2l-6.8,6.9l0,5l20.3,0l0,-6.2l-10.8,0l0,-0.2c3.1,-2.9 5.1,-4.7 6.1,-5.7z" class="st4"/>
      <path stroke="null" id="svg_151" d="m770.5,334.6c-0.8,1.1 -1.2,2.5 -1.2,4.1c0,2.5 0.9,4.4 2.6,5.8c1.7,1.3 4.3,2 7.6,2c3.2,0 5.7,-0.7 7.5,-2.1c1.8,-1.4 2.7,-3.3 2.7,-5.8c0,-1.4 -0.4,-2.6 -1.3,-3.8c-0.8,-1.2 -2.3,-2.3 -4.4,-3.5c1.7,-0.8 2.9,-1.8 3.7,-2.9c0.8,-1.1 1.2,-2.4 1.2,-3.9c0,-2.2 -0.8,-3.9 -2.5,-5.1c-1.6,-1.2 -3.9,-1.8 -6.9,-1.8c-2.9,0 -5.3,0.6 -6.9,1.8c-1.7,1.2 -2.5,2.9 -2.5,5c0,1.4 0.3,2.6 1,3.8c0.7,1.1 1.8,2.2 3.2,3.2c-1.7,1.1 -3,2.1 -3.8,3.2zm7.5,-10.8c0.4,-0.4 1,-0.6 1.6,-0.6c0.6,0 1.2,0.2 1.6,0.6c0.4,0.4 0.7,0.9 0.7,1.5c0,0.5 -0.2,1 -0.5,1.5c-0.3,0.4 -0.9,0.9 -1.9,1.4c-1.5,-0.8 -2.2,-1.8 -2.2,-2.9c0,-0.7 0.2,-1.1 0.7,-1.5zm-1,12.7c0.5,-0.6 1.3,-1.2 2.4,-1.8c1.3,0.8 2.1,1.4 2.6,2c0.5,0.6 0.7,1.2 0.7,1.8c0,1.6 -1.1,2.5 -3.4,2.5c-1,0 -1.8,-0.2 -2.3,-0.7c-0.6,-0.5 -0.8,-1.1 -0.8,-1.9c0.1,-0.6 0.3,-1.2 0.8,-1.9z" class="st4"/>
      <path stroke="null" id="svg_152" d="m762.1,241.9c1,-1 1.7,-1.9 2.3,-2.8c0.6,-0.9 1,-1.8 1.3,-2.8c0.3,-0.9 0.4,-1.9 0.4,-3c0,-1.5 -0.4,-2.8 -1.2,-4c-0.8,-1.2 -1.9,-2.1 -3.3,-2.7c-1.4,-0.6 -3,-1 -4.9,-1c-1.4,0 -2.7,0.1 -3.9,0.4c-1.1,0.3 -2.2,0.7 -3.2,1.3c-1,0.6 -2.2,1.5 -3.6,2.8l4.2,4.9c1.1,-1 2.1,-1.7 3,-2.2c0.9,-0.5 1.8,-0.8 2.7,-0.8c0.9,0 1.5,0.2 2,0.6c0.5,0.4 0.7,1 0.7,1.7c0,0.6 -0.1,1.2 -0.4,1.7c-0.2,0.5 -0.7,1.2 -1.3,1.9c-0.6,0.7 -1.9,2.1 -3.8,4.2l-6.8,6.9l0,5l20.3,0l0,-6.2l-10.6,0l0,-0.2c3.1,-2.8 5.1,-4.7 6.1,-5.7z" class="st4"/>
      <path stroke="null" id="svg_153" d="m780.5,246.9c-1.5,1.1 -3.6,1.7 -6.3,1.7c-1.1,0 -2.2,-0.1 -3.3,-0.3l0,6c0.9,0.1 2.2,0.2 3.9,0.2c5.2,0 9,-1.2 11.3,-3.7c2.4,-2.4 3.5,-6.4 3.5,-11.9c0,-4.2 -0.9,-7.4 -2.8,-9.7c-1.9,-2.3 -4.5,-3.4 -7.9,-3.4c-3.1,0 -5.5,0.9 -7.3,2.6c-1.8,1.8 -2.7,4.2 -2.7,7.3c0,2.8 0.7,5.1 2.1,6.7c1.4,1.6 3.3,2.4 5.7,2.4c1,0 1.9,-0.1 2.6,-0.3c0.7,-0.2 1.3,-0.5 1.8,-0.9c0.5,-0.4 1,-1.1 1.5,-2l0.2,0c0,2.4 -0.8,4.2 -2.3,5.3zm0.8,-8.8c-0.6,0.6 -1.3,0.9 -2.2,0.9c-0.9,0 -1.6,-0.3 -2.1,-0.9c-0.4,-0.6 -0.7,-1.5 -0.7,-2.5c0,-1.3 0.3,-2.3 0.8,-2.9c0.5,-0.6 1.2,-0.9 2,-0.9c0.9,0 1.6,0.4 2.2,1.2c0.6,0.8 0.9,1.8 0.9,2.9c0,0.9 -0.3,1.6 -0.9,2.2z" class="st4"/>
      <path stroke="null" id="svg_154" d="m757.1,155.7c-0.8,0.5 -2,0.7 -3.6,0.7c-1.1,0 -2.2,-0.2 -3.5,-0.5c-1.3,-0.3 -2.5,-0.8 -3.7,-1.4l0,6.3c1.5,0.6 2.9,1 4.2,1.2c1.3,0.2 2.7,0.3 4.2,0.3c3.7,0 6.5,-0.7 8.6,-2.2c2.1,-1.5 3.1,-3.5 3.1,-6.1c0,-3.8 -2.3,-6 -7,-6.6l0,-0.2c2,-0.6 3.5,-1.5 4.6,-2.7c1.1,-1.2 1.6,-2.7 1.6,-4.5c0,-2 -0.8,-3.6 -2.5,-4.7c-1.6,-1.2 -3.9,-1.7 -6.8,-1.7c-2,0 -3.8,0.2 -5.3,0.6c-1.5,0.4 -3.1,1.2 -4.5,2.2l3.1,5c1.9,-1.2 3.8,-1.8 5.5,-1.8c1,0 1.7,0.2 2.3,0.5c0.6,0.4 0.9,0.9 0.9,1.6c0,2 -1.9,3 -5.8,3l-1.8,0l0,5.7l1.7,0c1.4,0 2.6,0.1 3.4,0.3c0.9,0.2 1.5,0.5 1.9,0.9c0.4,0.4 0.6,1 0.6,1.8c0,1.1 -0.4,1.8 -1.2,2.3z" class="st4"/>
      <path stroke="null" id="svg_155" d="m779.4,162.3c3.4,0 6,-1.2 7.6,-3.5c1.7,-2.3 2.5,-5.9 2.5,-10.9c0,-4.8 -0.9,-8.4 -2.6,-10.8c-1.7,-2.4 -4.2,-3.6 -7.6,-3.6c-3.4,0 -6,1.2 -7.6,3.5c-1.7,2.3 -2.5,6 -2.5,10.9c0,4.8 0.8,8.3 2.5,10.7c1.8,2.5 4.3,3.7 7.7,3.7zm-2,-20.9c0.4,-1.2 1.1,-1.8 2,-1.8c0.9,0 1.6,0.6 2,1.9c0.4,1.2 0.6,3.4 0.6,6.5c0,3.1 -0.2,5.2 -0.6,6.5c-0.4,1.2 -1,1.8 -2,1.8c-0.9,0 -1.6,-0.6 -2,-1.8c-0.4,-1.2 -0.6,-3.4 -0.6,-6.5c0,-3.2 0.2,-5.4 0.6,-6.6z" class="st4"/>
      <path stroke="null" id="svg_156" d="m860.7,346.1l7.7,0l0,-28l-6.8,0l-9.6,7.8l3.9,4.8l3.2,-2.6c0.7,-0.6 1.3,-1.2 1.8,-1.8c-0.1,1.5 -0.1,3.1 -0.1,4.9l0,14.9l-0.1,0z" class="st4"/>
      <path stroke="null" id="svg_157" d="m839.6,339.9c-0.8,0.5 -2,0.7 -3.6,0.7c-1.1,0 -2.3,-0.2 -3.5,-0.5c-1.3,-0.3 -2.5,-0.8 -3.7,-1.4l0,6.3c1.5,0.6 2.9,1 4.2,1.2c1.3,0.2 2.7,0.3 4.2,0.3c3.7,0 6.5,-0.7 8.6,-2.2c2.1,-1.5 3.1,-3.5 3.1,-6.1c0,-3.8 -2.3,-6 -7,-6.6l0,-0.1c2,-0.6 3.5,-1.5 4.6,-2.7c1.1,-1.2 1.6,-2.7 1.6,-4.5c0,-2 -0.8,-3.6 -2.5,-4.7c-1.6,-1.2 -3.9,-1.7 -6.8,-1.7c-2,0 -3.8,0.2 -5.3,0.6c-1.5,0.4 -3.1,1.2 -4.5,2.2l3.1,5c1.9,-1.2 3.8,-1.8 5.5,-1.8c1,0 1.7,0.2 2.3,0.5c0.6,0.4 0.8,0.9 0.8,1.6c0,2 -1.9,3 -5.8,3l-1.8,0l0,5.7l1.7,0c1.4,0 2.6,0.1 3.4,0.3c0.9,0.2 1.5,0.5 1.9,0.9c0.4,0.4 0.6,1 0.6,1.8c0,1 -0.4,1.7 -1.1,2.2z" class="st4"/>
      <path stroke="null" id="svg_158" d="m837.8,247.8c-0.8,0.5 -2,0.7 -3.6,0.7c-1.1,0 -2.3,-0.2 -3.5,-0.5c-1.3,-0.3 -2.5,-0.8 -3.7,-1.4l0,6.3c1.5,0.6 2.9,1 4.2,1.2c1.3,0.2 2.7,0.3 4.2,0.3c3.7,0 6.5,-0.7 8.6,-2.2c2.1,-1.5 3.1,-3.5 3.1,-6.1c0,-3.8 -2.3,-6 -7,-6.6l0,-0.1c2,-0.6 3.5,-1.5 4.6,-2.7c1.1,-1.2 1.6,-2.7 1.6,-4.5c0,-2 -0.8,-3.6 -2.5,-4.7c-1.6,-1.2 -3.9,-1.7 -6.8,-1.7c-2,0 -3.8,0.2 -5.3,0.6c-1.5,0.4 -3.1,1.2 -4.5,2.2l3.1,5c1.9,-1.2 3.8,-1.8 5.5,-1.8c1,0 1.7,0.2 2.3,0.5c0.6,0.4 0.9,0.9 0.9,1.6c0,2 -1.9,3 -5.8,3l-1.8,0l0,5.7l1.7,0c1.4,0 2.6,0.1 3.4,0.3c0.9,0.2 1.5,0.5 1.9,0.9c0.4,0.4 0.6,1 0.6,1.8c0,1 -0.4,1.7 -1.2,2.2z" class="st4"/>
      <path stroke="null" id="svg_159" d="m865.6,241.9c1,-1 1.7,-1.9 2.3,-2.8c0.6,-0.9 1,-1.8 1.3,-2.8c0.3,-0.9 0.4,-1.9 0.4,-3c0,-1.5 -0.4,-2.8 -1.2,-4c-0.8,-1.2 -1.9,-2.1 -3.3,-2.7c-1.4,-0.6 -3,-1 -4.8,-1c-1.4,0 -2.7,0.1 -3.9,0.4c-1.2,0.3 -2.2,0.7 -3.2,1.3c-1,0.6 -2.2,1.5 -3.6,2.8l4.2,4.9c1.1,-1 2.1,-1.7 3.1,-2.2c0.9,-0.5 1.8,-0.8 2.7,-0.8c0.9,0 1.5,0.2 2,0.6c0.5,0.4 0.7,1 0.7,1.7c0,0.6 -0.1,1.2 -0.4,1.7c-0.2,0.5 -0.7,1.2 -1.3,1.9c-0.6,0.7 -1.9,2.1 -3.8,4.2l-6.8,6.9l0,5l20.3,0l0,-6.2l-10.6,0l0,-0.2c2.9,-2.8 4.9,-4.7 5.9,-5.7z" class="st4"/>
      <path stroke="null" id="svg_160" d="m860.9,155.7c-0.8,0.5 -2,0.7 -3.6,0.7c-1.1,0 -2.2,-0.2 -3.5,-0.5c-1.3,-0.3 -2.5,-0.8 -3.7,-1.4l0,6.3c1.5,0.6 2.9,1 4.2,1.2c1.3,0.2 2.7,0.3 4.2,0.3c3.7,0 6.5,-0.7 8.6,-2.2c2.1,-1.5 3.1,-3.5 3.1,-6.1c0,-3.8 -2.3,-6 -7,-6.6l0,-0.2c2,-0.6 3.5,-1.5 4.6,-2.7c1.1,-1.2 1.6,-2.7 1.6,-4.5c0,-2 -0.8,-3.6 -2.5,-4.7c-1.6,-1.2 -3.9,-1.7 -6.8,-1.7c-2,0 -3.8,0.2 -5.3,0.6c-1.6,0.4 -3.1,1.2 -4.5,2.2l3.1,5c1.9,-1.2 3.8,-1.8 5.6,-1.8c1,0 1.7,0.2 2.3,0.5c0.6,0.4 0.8,0.9 0.8,1.6c0,2 -1.9,3 -5.8,3l-1.8,0l0,5.7l1.7,0c1.4,0 2.6,0.1 3.4,0.3c0.9,0.2 1.5,0.5 1.9,0.9c0.4,0.4 0.6,1 0.6,1.8c-0.1,1.1 -0.5,1.8 -1.2,2.3z" class="st4"/>
      <path stroke="null" id="svg_161" d="m837.9,155.7c-0.8,0.5 -2,0.7 -3.6,0.7c-1.1,0 -2.2,-0.2 -3.5,-0.5c-1.3,-0.3 -2.5,-0.8 -3.7,-1.4l0,6.3c1.5,0.6 2.9,1 4.2,1.2c1.3,0.2 2.7,0.3 4.2,0.3c3.7,0 6.5,-0.7 8.6,-2.2c2.1,-1.5 3.1,-3.5 3.1,-6.1c0,-3.8 -2.3,-6 -7,-6.6l0,-0.2c2,-0.6 3.5,-1.5 4.6,-2.7c1.1,-1.2 1.6,-2.7 1.6,-4.5c0,-2 -0.8,-3.6 -2.5,-4.7c-1.6,-1.2 -3.9,-1.7 -6.8,-1.7c-2,0 -3.8,0.2 -5.3,0.6c-1.6,0.4 -3.1,1.2 -4.5,2.2l3.1,5c1.9,-1.2 3.8,-1.8 5.6,-1.8c1,0 1.7,0.2 2.3,0.5c0.6,0.4 0.9,0.9 0.9,1.6c0,2 -1.9,3 -5.8,3l-1.8,0l0,5.7l1.7,0c1.4,0 2.6,0.1 3.4,0.3c0.9,0.2 1.5,0.5 1.9,0.9c0.4,0.4 0.6,1 0.6,1.8c-0.2,1.1 -0.6,1.8 -1.3,2.3z" class="st4"/>
      <path stroke="null" id="svg_162" d="m941.1,318.2l-11.6,17l0,5.5l11.2,0l0,5.4l7.5,0l0,-5.4l3.1,0l0,-5.6l-3.1,0l0,-16.9l-7.1,0zm-0.4,11.1c0,1 -0.1,1.9 -0.1,2.5l0,3.3l-4.6,0l3.1,-4.6c0.5,-0.9 1,-1.8 1.5,-2.8l0.2,0c-0.1,0.1 -0.1,0.6 -0.1,1.6z" class="st4"/>
      <path stroke="null" id="svg_163" d="m918,339.9c-0.8,0.5 -2,0.7 -3.6,0.7c-1.1,0 -2.2,-0.2 -3.5,-0.5c-1.3,-0.3 -2.5,-0.8 -3.7,-1.4l0,6.3c1.5,0.6 2.9,1 4.2,1.2c1.3,0.2 2.7,0.3 4.2,0.3c3.7,0 6.5,-0.7 8.6,-2.2c2.1,-1.5 3.1,-3.5 3.1,-6.1c0,-3.8 -2.3,-6 -7,-6.6l0,-0.1c2,-0.6 3.5,-1.5 4.6,-2.7c1.1,-1.2 1.6,-2.7 1.6,-4.5c0,-2 -0.8,-3.6 -2.5,-4.7c-1.6,-1.2 -3.9,-1.7 -6.8,-1.7c-2,0 -3.8,0.2 -5.3,0.6c-1.6,0.4 -3.1,1.2 -4.5,2.2l3.1,5c1.9,-1.2 3.8,-1.8 5.5,-1.8c1,0 1.7,0.2 2.3,0.5c0.6,0.4 0.9,0.9 0.9,1.6c0,2 -1.9,3 -5.8,3l-1.8,0l0,5.7l1.7,0c1.4,0 2.6,0.1 3.4,0.3c0.9,0.2 1.5,0.5 1.9,0.9c0.4,0.4 0.6,1 0.6,1.8c-0.1,1 -0.4,1.7 -1.2,2.2z" class="st4"/>
      <path stroke="null" id="svg_164" d="m918.6,247.8c-0.8,0.5 -2,0.7 -3.6,0.7c-1.1,0 -2.3,-0.2 -3.5,-0.5c-1.3,-0.3 -2.5,-0.8 -3.7,-1.4l0,6.3c1.5,0.6 2.9,1 4.2,1.2c1.3,0.2 2.7,0.3 4.2,0.3c3.7,0 6.5,-0.7 8.6,-2.2c2.1,-1.5 3.1,-3.5 3.1,-6.1c0,-3.8 -2.3,-6 -7,-6.6l0,-0.1c2,-0.6 3.5,-1.5 4.6,-2.7c1.1,-1.2 1.6,-2.7 1.6,-4.5c0,-2 -0.8,-3.6 -2.5,-4.7c-1.6,-1.2 -3.9,-1.7 -6.8,-1.7c-2,0 -3.8,0.2 -5.3,0.6c-1.5,0.4 -3.1,1.2 -4.5,2.2l3.1,5c1.9,-1.2 3.8,-1.8 5.5,-1.8c1,0 1.7,0.2 2.3,0.5c0.6,0.4 0.9,0.9 0.9,1.6c0,2 -1.9,3 -5.8,3l-1.8,0l0,5.7l1.7,0c1.4,0 2.6,0.1 3.4,0.3c0.9,0.2 1.5,0.5 1.9,0.9c0.4,0.4 0.6,1 0.6,1.8c-0.1,1 -0.4,1.7 -1.2,2.2z" class="st4"/>
      <path stroke="null" id="svg_165" d="m938.5,248.5c-1,0 -2.2,-0.2 -3.6,-0.5c-1.4,-0.3 -2.7,-0.8 -3.8,-1.3l0,6.2c2.1,1 4.7,1.5 8,1.5c3.8,0 6.7,-0.8 8.5,-2.5c1.9,-1.7 2.8,-4.1 2.8,-7.2c0,-1.8 -0.4,-3.4 -1.1,-4.7c-0.7,-1.4 -1.7,-2.4 -3,-3.2c-1.3,-0.8 -2.7,-1.1 -4.4,-1.1c-0.4,0 -0.7,0 -1.2,0c-0.4,0 -1.1,0.1 -2.1,0.3l0.3,-3.7l9.5,0l0,-6.3l-16,0l-1.1,14.8l2.8,1.4c1.4,-0.4 2.7,-0.7 3.8,-0.7c1.6,0 2.7,0.3 3.5,0.9c0.8,0.6 1.2,1.4 1.2,2.5c0,1.2 -0.4,2 -1.1,2.6c-0.5,0.7 -1.6,1 -3,1z" class="st4"/>
      <path stroke="null" id="svg_166" d="m918.3,155.7c-0.8,0.5 -2,0.7 -3.6,0.7c-1.1,0 -2.3,-0.2 -3.5,-0.5c-1.3,-0.3 -2.5,-0.8 -3.7,-1.4l0,6.3c1.5,0.6 2.9,1 4.2,1.2c1.3,0.2 2.7,0.3 4.2,0.3c3.7,0 6.5,-0.7 8.6,-2.2c2.1,-1.5 3.1,-3.5 3.1,-6.1c0,-3.8 -2.3,-6 -7,-6.6l0,-0.2c2,-0.6 3.5,-1.5 4.6,-2.7c1.1,-1.2 1.6,-2.7 1.6,-4.5c0,-2 -0.8,-3.6 -2.5,-4.7c-1.6,-1.2 -3.9,-1.7 -6.8,-1.7c-2,0 -3.8,0.2 -5.3,0.6c-1.5,0.4 -3.1,1.2 -4.5,2.2l3.1,5c1.9,-1.2 3.8,-1.8 5.5,-1.8c1,0 1.7,0.2 2.3,0.5c0.6,0.4 0.8,0.9 0.8,1.6c0,2 -1.9,3 -5.8,3l-1.8,0l0,5.7l1.7,0c1.4,0 2.6,0.1 3.4,0.3c0.9,0.2 1.5,0.5 1.9,0.9c0.4,0.4 0.6,1 0.6,1.8c0.1,1.1 -0.3,1.8 -1.1,2.3z" class="st4"/>
      <path stroke="null" id="svg_167" d="m944.9,139.4c1.5,0 2.9,0.1 4.2,0.4l0,-5.9c-1.5,-0.2 -2.8,-0.3 -4,-0.3c-3.2,0 -5.9,0.6 -8,1.7c-2.2,1.1 -3.8,2.9 -4.9,5.4c-1.1,2.4 -1.7,5.6 -1.7,9.5c0,3.8 0.9,6.9 2.8,9c1.9,2.1 4.4,3.2 7.8,3.2c3.1,0 5.5,-0.9 7.3,-2.7c1.7,-1.8 2.6,-4.2 2.6,-7.3c0,-2.9 -0.7,-5.1 -2.1,-6.7c-1.4,-1.6 -3.3,-2.4 -5.8,-2.4c-2.5,0 -4.4,1.1 -5.5,3.3l-0.2,0c0.1,-2.5 0.8,-4.3 2,-5.4c1.1,-1.2 3,-1.8 5.5,-1.8zm-6.2,10.6c0.5,-0.6 1.2,-0.9 2.1,-0.9c1.8,0 2.6,1.1 2.6,3.4c0,1.3 -0.2,2.3 -0.8,2.9c-0.5,0.6 -1.2,0.9 -2,0.9c-0.9,0 -1.5,-0.4 -2.1,-1.2c-0.5,-0.8 -0.8,-1.8 -0.8,-3c0.2,-0.8 0.5,-1.5 1,-2.1z" class="st4"/>
     </g>
    </g>
    <g stroke="null" id="svg_168">
     <path stroke="null" id="svg_169" d="m84.4,100l-82.5,0l-1.9,0l0,95.9l84.4,0l0,-95.9zm-3.7,92.1l-76.9,0l0,-88.4l76.9,0l0,88.4z" class="st5"/>
     <path stroke="null" id="svg_170" d="m165.1,100l-82.5,0l-1.9,0l0,95.9l84.4,0l0,-95.9zm-3.8,92.1l-76.9,0l0,-88.4l76.9,0l0,88.4z" class="st5"/>
     <path stroke="null" id="svg_171" d="m163.2,100l-1.9,0l0,95.9l84.4,0l0,-95.9l-82.5,0zm78.7,92.1l-76.9,0l0,-88.4l76.9,0l0,88.4z" class="st5"/>
     <path stroke="null" id="svg_172" d="m326.3,100l-82.5,0l-1.9,0l0,95.9l84.4,0l0,-95.9zm-3.7,92.1l-76.9,0l0,-88.4l76.9,0l0,88.4z" class="st5"/>
     <path stroke="null" id="svg_173" d="m324.4,100l-1.9,0l0,95.9l84.4,0l0,-95.9l-82.5,0zm78.8,92.1l-76.9,0l0,-88.4l76.9,0l0,88.4z" class="st5"/>
     <path stroke="null" id="svg_174" d="m405.1,100l-1.9,0l0,95.9l84.4,0l0,-95.9l-82.5,0zm78.7,92.1l-76.9,0l0,-88.4l76.9,0l0,88.4z" class="st5"/>
     <path stroke="null" id="svg_175" d="m485.7,100l-1.9,0l0,95.9l84.4,0l0,-95.9l-82.5,0zm78.7,92.1l-76.9,0l0,-88.4l76.9,0l0,88.4z" class="st5"/>
     <path stroke="null" id="svg_176" d="m566.3,100l-1.9,0l0,95.9l84.4,0l0,-95.9l-82.5,0zm78.8,92.1l-76.9,0l0,-88.4l76.9,0l0,88.4z" class="st5"/>
     <path stroke="null" id="svg_177" d="m646.9,100l-1.9,0l0,95.9l84.4,0l0,-95.9l-82.5,0zm78.8,92.1l-76.9,0l0,-88.4l76.9,0l0,88.4z" class="st5"/>
     <path stroke="null" id="svg_178" d="m810.1,100l-82.5,0l-1.9,0l0,95.9l84.4,0l0,-95.9zm-3.8,92.1l-76.9,0l0,-88.4l76.9,0l0,88.4z" class="st5"/>
     <path stroke="null" id="svg_179" d="m808.2,100l-1.9,0l0,95.9l84.4,0l0,-95.9l-82.5,0zm78.7,92.1l-76.9,0l0,-88.4l76.9,0l0,88.4z" class="st5"/>
     <path stroke="null" id="svg_180" d="m888.8,100l-1.9,0l0,95.9l84.4,0l0,-95.9l-82.5,0zm78.8,92.1l-76.9,0l0,-88.4l76.9,0l0,88.4z" class="st5"/>
     <path stroke="null" id="svg_181" d="m84.4,192.1l-82.5,0l-1.9,0l0,95.9l84.4,0l0,-95.9zm-3.7,92.1l-76.9,0l0,-88.4l76.9,0l0,88.4z" class="st5"/>
     <path stroke="null" id="svg_182" d="m165.1,192.1l-82.5,0l-1.9,0l0,95.9l84.4,0l0,-95.9zm-3.8,92.1l-76.9,0l0,-88.4l76.9,0l0,88.4z" class="st5"/>
     <path stroke="null" id="svg_183" d="m163.2,192.1l-1.9,0l0,95.9l84.4,0l0,-95.9l-82.5,0zm78.7,92.1l-76.9,0l0,-88.4l76.9,0l0,88.4z" class="st5"/>
     <path stroke="null" id="svg_184" d="m326.3,192.1l-82.5,0l-1.9,0l0,95.9l84.4,0l0,-95.9zm-3.7,92.1l-76.9,0l0,-88.4l76.9,0l0,88.4z" class="st5"/>
     <path stroke="null" id="svg_185" d="m324.4,192.1l-1.9,0l0,95.9l84.4,0l0,-95.9l-82.5,0zm78.8,92.1l-76.9,0l0,-88.4l76.9,0l0,88.4z" class="st5"/>
     <path stroke="null" id="svg_186" d="m405.1,192.1l-1.9,0l0,95.9l84.4,0l0,-95.9l-82.5,0zm78.7,92.1l-76.9,0l0,-88.4l76.9,0l0,88.4z" class="st5"/>
     <path stroke="null" id="svg_187" d="m485.7,192.1l-1.9,0l0,95.9l84.4,0l0,-95.9l-82.5,0zm78.7,92.1l-76.9,0l0,-88.4l76.9,0l0,88.4z" class="st5"/>
     <path stroke="null" id="svg_188" d="m566.3,192.1l-1.9,0l0,95.9l84.4,0l0,-95.9l-82.5,0zm78.8,92.1l-76.9,0l0,-88.4l76.9,0l0,88.4z" class="st5"/>
     <path stroke="null" id="svg_189" d="m646.9,192.1l-1.9,0l0,95.9l84.4,0l0,-95.9l-82.5,0zm78.8,92.1l-76.9,0l0,-88.4l76.9,0l0,88.4z" class="st5"/>
     <path stroke="null" id="svg_190" d="m810.1,192.1l-82.5,0l-1.9,0l0,95.9l84.4,0l0,-95.9zm-3.8,92.1l-76.9,0l0,-88.4l76.9,0l0,88.4z" class="st5"/>
     <path stroke="null" id="svg_191" d="m808.2,192.1l-1.9,0l0,95.9l84.4,0l0,-95.9l-82.5,0zm78.7,92.1l-76.9,0l0,-88.4l76.9,0l0,88.4z" class="st5"/>
     <path stroke="null" id="svg_192" d="m888.8,192.1l-1.9,0l0,95.9l84.4,0l0,-95.9l-82.5,0zm78.8,92.1l-76.9,0l0,-88.4l76.9,0l0,88.4z" class="st5"/>
     <path stroke="null" id="svg_193" d="m84.4,284.2l-82.5,0l-1.9,0l0,95.9l84.4,0l0,-95.9zm-3.7,92.1l-76.9,0l0,-88.4l76.9,0l0,88.4z" class="st5"/>
     <path stroke="null" id="svg_194" d="m165.1,284.2l-82.5,0l-1.9,0l0,95.9l84.4,0l0,-95.9zm-3.8,92.1l-76.9,0l0,-88.4l76.9,0l0,88.4z" class="st5"/>
     <path stroke="null" id="svg_195" d="m163.2,284.2l-1.9,0l0,95.9l84.4,0l0,-95.9l-82.5,0zm78.7,92.1l-76.9,0l0,-88.4l76.9,0l0,88.4z" class="st5"/>
     <path stroke="null" id="svg_196" d="m326.3,284.2l-82.5,0l-1.9,0l0,95.9l84.4,0l0,-95.9zm-3.7,92.1l-76.9,0l0,-88.4l76.9,0l0,88.4z" class="st5"/>
     <path stroke="null" id="svg_197" d="m324.4,284.2l-1.9,0l0,95.9l84.4,0l0,-95.9l-82.5,0zm78.8,92.1l-76.9,0l0,-88.4l76.9,0l0,88.4z" class="st5"/>
     <path stroke="null" id="svg_198" d="m405.1,284.2l-1.9,0l0,95.9l84.4,0l0,-95.9l-82.5,0zm78.7,92.1l-76.9,0l0,-88.4l76.9,0l0,88.4z" class="st5"/>
     <path stroke="null" id="svg_199" d="m485.7,284.2l-1.9,0l0,95.9l84.4,0l0,-95.9l-82.5,0zm78.7,92.1l-76.9,0l0,-88.4l76.9,0l0,88.4z" class="st5"/>
     <path stroke="null" id="svg_200" d="m566.3,284.2l-1.9,0l0,95.9l84.4,0l0,-95.9l-82.5,0zm78.8,92.1l-76.9,0l0,-88.4l76.9,0l0,88.4z" class="st5"/>
     <path stroke="null" id="svg_201" d="m646.9,284.2l-1.9,0l0,95.9l84.4,0l0,-95.9l-82.5,0zm78.8,92.1l-76.9,0l0,-88.4l76.9,0l0,88.4z" class="st5"/>
     <path stroke="null" id="svg_202" d="m810.1,284.2l-82.5,0l-1.9,0l0,95.9l84.4,0l0,-95.9zm-3.8,92.1l-76.9,0l0,-88.4l76.9,0l0,88.4z" class="st5"/>
     <path stroke="null" id="svg_203" d="m808.2,284.2l-1.9,0l0,95.9l84.4,0l0,-95.9l-82.5,0zm78.7,92.1l-76.9,0l0,-88.4l76.9,0l0,88.4z" class="st5"/>
     <path stroke="null" id="svg_204" d="m888.8,284.2l-1.9,0l0,95.9l84.4,0l0,-95.9l-82.5,0zm78.8,92.1l-76.9,0l0,-88.4l76.9,0l0,88.4z" class="st5"/>
     <path stroke="null" id="svg_205" d="m326.3,376.3l-324.4,0l-1.9,0l0,92.6l326.2,0l0,-92.6l0.1,0zm-3.7,88.9l-318.8,0l0,-85.1l318.7,0l0,85.1l0.1,0z" class="st5"/>
     <path stroke="null" id="svg_206" d="m324.4,376.3l-1.9,0l0,92.6l326.2,0l0,-92.6l-324.3,0zm320.7,88.9l-318.8,0l0,-85.1l318.7,0l0,85.1l0.1,0z" class="st5"/>
     <path stroke="null" id="svg_207" d="m971.3,376.3l-324.4,0l-1.9,0l0,92.6l326.2,0l0,-92.6l0.1,0zm-3.7,88.9l-318.8,0l0,-85.1l318.8,0l0,85.1z" class="st5"/>
     <path stroke="null" id="svg_208" d="m165.1,465.2l-163.2,0l-1.9,0l0,92.6l165,0l0,-92.6l0.1,0zm-3.8,88.8l-157.5,0l0,-85.1l157.5,0l0,85.1z" class="st5"/>
     <path stroke="null" id="svg_209" d="m485.7,465.2l-1.9,0l0,92.6l165,0l0,-92.6l-163.1,0zm159.4,88.8l-157.5,0l0,-85.1l157.5,0l0,85.1z" class="st5"/>
     <path stroke="null" id="svg_210" d="m326.3,465.2l-163.1,0l-1.9,0l0,92.6l165,0l0,-92.6zm-3.7,88.8l-157.5,0l0,-85.1l157.5,0l0,85.1z" class="st5"/>
     <path stroke="null" id="svg_211" d="m808.2,465.2l-1.9,0l0,92.6l165,0l0,-92.6l-163.1,0zm159.4,88.8l-157.5,0l0,-85.1l157.5,0l0,85.1z" class="st5"/>
     <path stroke="null" id="svg_212" d="m810.1,465.2l-163.2,0l-1.9,0l0,92.6l165,0l0,-92.6l0.1,0zm-3.8,88.8l-157.5,0l0,-85.1l157.5,0l0,85.1z" class="st5"/>
     <path stroke="null" id="svg_213" d="m324.4,465.2l-1.9,0l0,92.6l165,0l0,-92.6l-163.1,0zm159.4,88.8l-157.5,0l0,-85.1l157.5,0l0,85.1z" class="st5"/>
     <path stroke="null" id="svg_214" d="m1051.9,100l-82.5,0l-1.9,0l0,95.9l84.4,0l0,-95.9zm-3.7,92.1l-76.9,0l0,-88.4l76.9,0l0,88.4z" class="st5"/>
     <path stroke="null" id="svg_215" d="m1051.9,192.1l-82.5,0l-1.9,0l0,95.9l84.4,0l0,-95.9zm-3.7,92.1l-76.9,0l0,-88.4l76.9,0l0,88.4z" class="st5"/>
     <path stroke="null" id="svg_216" d="m1051.9,284.2l-82.5,0l-1.9,0l0,95.9l84.4,0l0,-95.9zm-3.7,92.1l-76.9,0l0,-88.4l76.9,0l0,88.4z" class="st5"/>
     <path stroke="null" id="svg_217" d="m1042,111.3l-62.7,0l-1.9,0l0,73.3l64.6,0l0,-73.3zm-3.7,69.5l-57.1,0l0,-65.8l57.1,0l0,65.8z" class="st5"/>
     <path stroke="null" id="svg_218" d="m1042,203.4l-62.7,0l-1.9,0l0,73.3l64.6,0l0,-73.3zm-3.7,69.5l-57.1,0l0,-65.7l57.1,0l0,65.7z" class="st5"/>
     <path stroke="null" id="svg_219" d="m1042,295.5l-62.7,0l-1.9,0l0,73.3l64.6,0l0,-73.3zm-3.7,69.5l-57.1,0l0,-65.8l57.1,0l0,65.8z" class="st5"/>
     <path stroke="null" id="svg_220" d="m265.9,393l-203.6,0l-1.9,0l0,59.3l205.5,0l0,-59.3zm-3.7,55.5l-198,0l0,-51.8l198,0l0,51.8z" class="st5"/>
     <path stroke="null" id="svg_221" d="m384.8,393l-1.8,0l0,59.3l205.5,0l0,-59.3l-203.7,0zm199.9,55.5l-198,0l0,-51.8l198,0l0,51.8z" class="st5"/>
     <path stroke="null" id="svg_222" d="m910.9,393l-203.6,0l-1.9,0l0,59.3l205.5,0l0,-59.3zm-3.7,55.5l-198,0l0,-51.8l198,0l0,51.8z" class="st5"/>
    </g>
   </g>
   <g stroke="null" id="svg_225">
    <g stroke="null" id="svg_226">
     <circle stroke="null" id="svg_227" r="24.299999" cy="23.323524" cx="24.300003" class="st6"/>
     <path stroke="null" id="svg_228" d="m0,23.32352c0,1.1 0.1,2.2 0.2,3.2l15.7,0l-11.2,11.2c1.4,1.9 3.1,3.6 5,5l11.2,-11.2l0,15.8c1.1,0.1 2.2,0.2 3.3,0.2c1.3,0 2.5,-0.1 3.8,-0.3l0,-15.8l11,11c1.9,-1.5 3.6,-3.2 4.9,-5.1l-10.9,-10.9l15.3,0c0.1,-1.1 0.2,-2.1 0.2,-3.2c0,-1.3 -0.1,-2.6 -0.3,-3.9l-15.2,0l10.7,-10.7c-1.4,-1.9 -3.1,-3.6 -5,-5l-10.6,10.6l0,-15.1c-1.2,-0.2 -2.5,-0.3 -3.8,-0.3c-1.1,0 -2.2,0.1 -3.3,0.2l0,15.2l-10.8,-10.8c-1.9,1.4 -3.7,3.1 -5.1,4.9l10.9,10.9l-15.6,0c-0.3,1.5 -0.4,2.8 -0.4,4.1z" class="st4"/>
     <circle stroke="null" id="svg_229" r="16.299999" cy="22.323524" cx="23.300003" class="st6"/>
     <path stroke="null" id="svg_230" d="m36.7,35.72352c3.2,-3.2 5.1,-7.5 5.1,-12.4c0,-4.8 -2,-9.2 -5.1,-12.4c-3.2,-3.2 -7.5,-5.1 -12.4,-5.1c-4.8,0 -9.2,2 -12.4,5.1c-3.2,3.2 -5.1,7.5 -5.1,12.4c0,4.8 2,9.2 5.1,12.4c3.2,3.2 7.5,5.1 12.4,5.1c4.8,0 9.2,-1.9 12.4,-5.1zm-27.6,-12.4c0,-4.2 1.7,-8 4.4,-10.7c2.7,-2.7 6.5,-4.4 10.7,-4.4c4.2,0 8,1.7 10.7,4.4c2.7,2.7 4.4,6.5 4.4,10.7c0,4.2 -1.7,8 -4.4,10.7c-2.7,2.7 -6.5,4.4 -10.7,4.4c-4.2,0 -8,-1.7 -10.7,-4.4c-2.7,-2.7 -4.4,-6.5 -4.4,-10.7z" class="st4"/>
    </g>
    <g stroke="null" id="svg_231">
     <circle stroke="null" id="svg_232" r="24.261415" cy="23.323521" cx="24.261421" class="st1"/>
     <path stroke="null" id="svg_233" d="m0,23.32352c0,1.1 0.09984,2.2 0.19968,3.2l15.77492,0l-11.18222,11.2c1.39777,1.9 3.09508,3.6 4.99206,5l11.18222,-11.2l0,15.8c1.09826,0.1 2.19651,0.2 3.29476,0.2c1.29794,0 2.49604,-0.1 3.79397,-0.3l0,-15.8l10.98254,11c1.89698,-1.5 3.59429,-3.2 4.89222,-5.1l-10.8827,-10.9l15.27572,0c0.09984,-1.1 0.19968,-2.1 0.19968,-3.2c0,-1.3 -0.09984,-2.6 -0.29952,-3.9l-15.17588,0l10.68302,-10.7c-1.39778,-1.9 -3.09508,-3.6 -4.99206,-5l-10.58318,10.6l0,-15.1c-1.19809,-0.2 -2.49603,-0.3 -3.79396,-0.3c-1.09826,0 -2.19651,0.1 -3.29477,0.2l0,15.2l-10.78285,-10.8c-1.89699,1.4 -3.69413,3.1 -5.09191,4.9l10.8827,10.9l-15.57524,0c-0.29952,1.5 -0.4992,2.8 -0.4992,4.1z" class="st4"/>
     <circle stroke="null" id="svg_234" r="16.274115" cy="23.323521" cx="24.261421" class="st1"/>
     <path stroke="null" id="svg_235" d="m36.64174,35.72352c3.19492,-3.2 5.09191,-7.5 5.09191,-12.4c0,-4.8 -1.99683,-9.2 -5.09191,-12.4c-3.19492,-3.2 -7.48809,-5.1 -12.38032,-5.1c-4.79238,0 -9.18539,2 -12.38031,5.1c-3.19492,3.2 -5.09191,7.5 -5.09191,12.4c0,4.8 1.99683,9.2 5.09191,12.4c3.19492,3.2 7.48809,5.1 12.38031,5.1c4.89223,0 9.1854,-1.9 12.38032,-5.1zm-27.45635,-12.4c0,-4.2 1.6973,-8 4.39302,-10.7c2.69571,-2.7 6.48968,-4.4 10.68301,-4.4c4.19334,0 7.98731,1.7 10.68302,4.4c2.69571,2.7 4.39302,6.5 4.39302,10.7c0,4.2 -1.69731,8 -4.39302,10.7c-2.69571,2.7 -6.48968,4.4 -10.68302,4.4c-4.19333,0 -7.9873,-1.7 -10.68301,-4.4c-2.69572,-2.7 -4.39302,-6.5 -4.39302,-10.7z" class="st4"/>
    </g>
    <g stroke="null" id="svg_236">
     <circle stroke="null" id="svg_237" r="24.261415" cy="23.323521" cx="24.261427" class="st5"/>
     <path stroke="null" id="svg_238" d="m0,23.32352c0,1.1 0.09984,2.2 0.19968,3.2l15.67508,0l-11.18222,11.2c1.39778,1.9 3.09508,3.6 4.99206,5l11.18223,-11.2l0,15.8c1.09825,0.1 2.1965,0.2 3.29476,0.2c1.29793,0 2.49603,-0.1 3.79396,-0.3l0,-15.8l10.98254,11c1.89699,-1.5 3.59429,-3.2 4.89223,-5.1l-10.8827,-10.9l15.27571,0c0.09984,-1.1 0.19968,-2.1 0.19968,-3.2c0,-1.3 -0.09984,-2.6 -0.29952,-3.9l-15.17587,0l10.68301,-10.7c-1.39777,-1.9 -3.09508,-3.6 -4.99206,-5l-10.58317,10.6l0,-15.1c-1.1981,-0.2 -2.49604,-0.3 -3.79397,-0.3c-1.09826,0 -2.19651,0.1 -3.29476,0.2l0,15.2l-10.78286,-10.8c-1.89698,1.4 -3.69413,3.1 -5.09191,4.9l10.8827,10.9l-15.67508,0c-0.19968,1.5 -0.29952,2.8 -0.29952,4.1z" class="st4"/>
     <circle stroke="null" id="svg_239" r="16.274115" cy="23.323521" cx="24.261427" class="st5"/>
     <path stroke="null" id="svg_240" d="m36.64174,35.72352c3.19493,-3.2 5.09191,-7.5 5.09191,-12.4c0,-4.8 -1.99682,-9.2 -5.09191,-12.4c-3.19492,-3.2 -7.48809,-5.1 -12.38031,-5.1c-4.79238,0 -9.1854,2 -12.38032,5.1c-3.19492,3.2 -5.0919,7.5 -5.0919,12.4c0,4.8 1.99682,9.2 5.0919,12.4c3.19492,3.2 7.4881,5.1 12.38032,5.1c4.79238,0 9.18539,-1.9 12.38031,-5.1zm-27.45634,-12.4c0,-4.2 1.6973,-8 4.39301,-10.7c2.69572,-2.7 6.48968,-4.4 10.68302,-4.4c4.19333,0 7.9873,1.7 10.68301,4.4c2.69572,2.7 4.39302,6.5 4.39302,10.7c0,4.2 -1.6973,8 -4.39302,10.7c-2.69571,2.7 -6.48968,4.4 -10.68301,4.4c-4.19333,0 -7.9873,-1.7 -10.68302,-4.4c-2.69571,-2.7 -4.39301,-6.5 -4.39301,-10.7z" class="st4"/>
    </g>
    <g stroke="null" id="svg_241">
     <circle stroke="null" id="svg_242" r="24.261415" cy="23.323521" cx="24.261424" class="st2"/>
     <path stroke="null" id="svg_243" d="m0,23.32352c0,1.1 0.09984,2.2 0.19968,3.2l15.67508,0l-11.18222,11.2c1.39777,1.9 3.09507,3.6 4.99206,5l11.18222,-11.2l0,15.8c1.09825,0.1 2.19651,0.2 3.29476,0.2c1.29794,0 2.49603,-0.1 3.79397,-0.3l0,-15.8l10.98254,11c1.89698,-1.5 3.59428,-3.2 4.89222,-5.1l-10.8827,-10.9l15.27572,0c0.09984,-1.1 0.19968,-2.1 0.19968,-3.2c0,-1.3 -0.09984,-2.6 -0.29952,-3.9l-15.17588,0l10.68302,-10.7c-1.39778,-1.9 -3.09508,-3.6 -4.99206,-5l-10.58318,10.6l0,-15.1c-1.19809,-0.2 -2.49603,-0.3 -3.79397,-0.3c-1.09825,0 -2.1965,0.1 -3.29476,0.2l0,15.2l-10.78286,-10.8c-1.89698,1.4 -3.69412,3.1 -5.0919,4.9l10.8827,10.9l-15.57524,0c-0.29952,1.5 -0.39937,2.8 -0.39937,4.1l0.00001,0z" class="st4"/>
     <circle id="svg_244" r="16.274115" cy="23.323521" cx="24.261424" class="st2" stroke="null"/>
     <path stroke="null" id="svg_245" d="m36.5419,35.72352c3.19492,-3.2 5.0919,-7.5 5.0919,-12.4c0,-4.8 -1.99682,-9.2 -5.0919,-12.4c-3.19492,-3.2 -7.4881,-5.1 -12.38032,-5.1c-4.79238,0 -9.1854,2 -12.38032,5.1c-3.19492,3.2 -5.0919,7.5 -5.0919,12.4c0,4.8 1.99682,9.2 5.0919,12.4c3.19493,3.2 7.4881,5.1 12.38032,5.1c4.89222,0 9.28524,-1.9 12.38032,-5.1zm-27.45635,-12.4c0,-4.2 1.6973,-8 4.39302,-10.7c2.69571,-2.7 6.48968,-4.4 10.68301,-4.4c4.19333,0 7.9873,1.7 10.68302,4.4c2.69571,2.7 4.39301,6.5 4.39301,10.7c0,4.2 -1.6973,8 -4.39301,10.7c-2.69572,2.7 -6.48968,4.4 -10.68302,4.4c-4.19333,0 -7.9873,-1.7 -10.68301,-4.4c-2.69572,-2.7 -4.39302,-6.5 -4.39302,-10.7z" class="st4"/>
    </g>
    <g stroke="null" id="svg_246"/>
   </g>
   <path fill="#efef09" stroke-width="NaN" stroke-opacity="0" d="m5.09074,34.9937c-2.84126,0.35925 -6.92331,-1.88336 -3.32629,-3.92144c3.04398,-1.32538 0.123,-4.77668 3.34192,-6.45309c3.27309,-3.71315 6.75772,-7.50881 8.38884,-11.96385c-0.22759,-2.13433 -5.31488,-5.66732 -0.16094,-6.35957c4.24975,0.41053 2.69543,-4.8765 4.16425,-7.16731c0.88322,-3.47713 1.52523,-7.01223 1.36676,-10.57363c-2.95959,-0.06867 -5.97976,0.21767 -8.88125,-0.36705c-1.85078,-2.0187 4.18149,-3.02383 5.17686,-4.84597c2.0885,-2.61892 -3.05735,-5.5125 -0.85458,-8.60838c1.40699,-4.68651 7.91605,-7.7249 13.42364,-6.00818c5.70324,1.229 9.91913,6.82735 7.20841,11.48413c-0.21642,0.8984 -1.91019,2.06326 -1.34451,2.77872c2.46953,1.42412 5.32886,2.66522 6.89347,4.86419c-2.21526,1.33472 -5.922,0.31825 -8.68597,0.95228c-2.51458,1.85341 -0.03071,5.64301 0.09809,8.18586c0.78444,2.90535 1.47697,5.83632 2.37592,8.71521c1.88979,0.61255 5.77136,1.32185 3.6421,3.86646c-3.03547,2.04769 -1.5496,5.30929 0.16292,7.60714c2.13144,3.5486 5.79026,6.25944 8.03173,9.72608c0.83239,1.60047 -2.14328,4.435 1.56534,3.77216c4.02055,0.70969 1.61465,5.34217 -1.99823,4.24767c-13.31184,0.38949 -26.65101,0.5476 -39.96316,0.11677l-0.62533,-0.04821l0,0l0,0.00001l0.00001,0z" id="svg_43" transform="rotate(0.6558101773262024 25.05931091308589,1.769918441772385) " stroke="null"/>
  </g>
 </g>
</svg>
